<?xml version="1.0" encoding="utf-8"?>
<!-- Generator: Adobe Illustrator 26.5.3, SVG Export Plug-In . SVG Version: 6.00 Build 0)  -->
<svg version="1.1" baseProfile="tiny" id="Layer_5" xmlns="http://www.w3.org/2000/svg" xmlns:xlink="http://www.w3.org/1999/xlink"
	 x="0px" y="0px" viewBox="0 0 898.8 589.9" overflow="visible" xml:space="preserve">
<g>
	<g>
		<path fill="#819262" d="M372.2,183h154.6c9.8,0,19-4.3,25.2-11.8s8.8-17.2,7-26.8L536.6,26.5C533.7,11.2,520.1,0,504.4,0H394.6
			c-15.8,0-29.3,11.1-32.2,26.5L340,144.4c-1.8,9.5,0.7,19.3,7,26.8C353.3,178.8,362.4,183,372.2,183L372.2,183L372.2,183z"/>
		<path fill="#819262" d="M302.4,169.9c10.7,0,19.4-8.6,19.4-19.2v-11.3c0-5.3-4.3-9.6-9.7-9.6h-32.6c-5.3,0-9.7,4.3-9.7,9.6v11.3
			c0,10.6,8.7,19.2,19.4,19.2H302.4L302.4,169.9z"/>
		<path fill="#819262" d="M619.5,129.8h-32.6c-5.3,0-9.7,4.3-9.7,9.6v11.3c0,10.6,8.7,19.2,19.4,19.2h13.1
			c10.7,0,19.4-8.6,19.4-19.2v-11.3C629.1,134.1,624.8,129.8,619.5,129.8L619.5,129.8L619.5,129.8z"/>
		<path fill="#819262" d="M327.8,234.4c-0.1-0.2-0.1-0.5-0.1-0.7s-0.1-0.4-0.1-0.6c-0.1-0.6-0.2-1.1-0.3-1.7h-3.4
			c-11.6,0-21.1-9.4-21.1-20.9V170h-13.9v40.5c0,19.1,15.7,34.7,35,34.7h6.5C329.4,241.6,328.4,238,327.8,234.4L327.8,234.4z"/>
		<path fill="#819262" d="M431.5,285.1c2.2,21.5,3.6,54.1,5.8,75.6h24.4c2.4-21.6,5.7-54.2,8.1-75.7
			C457.1,285,444.3,285,431.5,285.1L431.5,285.1z"/>
		<path fill="#819262" d="M596.2,169.9v40.5l0,0c0,11.5-9.5,20.9-21.1,20.9h-6.3c-2.5,4.3-2.8,9.3-2,14.2c0-0.1,0.1-0.3,0.1-0.4h8.1
			c19.3,0,35-15.6,35-34.7v-40.5H596.2L596.2,169.9z"/>
		<path fill="#819262" d="M367.2,434.9c0,8.2-7.2,14.8-15.7,13.9c-6.5-0.7-11.7-5.9-12.4-12.3c-0.9-8.4,5.7-15.5,14-15.5
			C360.8,421,367.2,427.2,367.2,434.9"/>
		<path fill="#819262" d="M562.4,434.9c0,8.2-7.2,14.8-15.7,13.9c-6.5-0.7-11.7-5.9-12.4-12.3c-0.9-8.4,5.7-15.6,14-15.6
			C556.1,421,562.4,427.2,562.4,434.9"/>
		<path fill="#819262" d="M460.7,434.9c0,8.2-7.2,14.8-15.7,13.9c-6.5-0.7-11.7-5.9-12.4-12.3c-0.9-8.4,5.7-15.6,14-15.6
			C454.4,421,460.7,427.2,460.7,434.9"/>
		<path fill="#819262" d="M548.6,407.9c3.9-4.5,3.4-11.3-1.2-15.2c-19.6-16.7-51-27.3-85.7-29.3l0,0v-10.6h-24.4v10.6
			c-34.7,2-66.1,12.7-85.7,29.3c-4.6,3.9-5.1,10.7-1.2,15.2c3.9,4.5,10.8,5,15.3,1.2c15.6-13.3,42.3-22.2,71.5-24.1v16.6
			c0,6.7,5.5,12.1,12.2,12.1c6.7,0,12.2-5.4,12.2-12.1V385c29.2,2,55.9,10.8,71.5,24.1c2,1.7,4.6,2.6,7.1,2.6
			C543.4,411.7,546.4,410.4,548.6,407.9L548.6,407.9z"/>
	</g>
	<path fill="#819262" d="M296.8,287.9c0.3,1.5-1.2,12.4-0.9,14c23.2-25.3,39.2-22.9,47.6-13c64.2,75.3,164.9,46,241.1-14
		c-35.8-3-147.7-155.8-231.7-28.8c57.5-21.1,95.2-1.6,130.7,30.5C424.5,239.4,362.1,245.5,296.8,287.9L296.8,287.9L296.8,287.9z"/>
</g>
<g>
	<text transform="matrix(1 0 0 1 -2.212524e-04 553.2793)" fill="#819262" font-family="'Verdana-Bold'" font-size="120.6288px">C</text>
	<text transform="matrix(1 0 0 1 87.281 553.2793)" fill="#819262" font-family="'Verdana'" font-size="120.6288px">asa </text>
	<text transform="matrix(1 0 0 1 337.4392 553.2793)" fill="#819262" font-family="'Verdana-Bold'" font-size="120.6288px">S</text>
	<text transform="matrix(1 0 0 1 423.1385 553.2793)" fill="#819262" font-family="'Verdana'" font-size="120.6288px">olutions</text>
</g>
</svg>
