<?xml version="1.0" encoding="utf-8"?>
<!-- Generator: Adobe Illustrator 26.5.3, SVG Export Plug-In . SVG Version: 6.00 Build 0)  -->
<svg version="1.1" baseProfile="tiny" id="Layer_1" xmlns="http://www.w3.org/2000/svg" xmlns:xlink="http://www.w3.org/1999/xlink"
	 x="0px" y="0px" viewBox="0 0 246.6 435.7" overflow="visible" xml:space="preserve">
<g id="Layer_2_00000146502050151903378500000007166572734819837325_">
</g>
<g id="Layer_1_00000064348787637411831840000012340814135092050356_">
	<path stroke="#000000" stroke-width="10" stroke-miterlimit="10" d="M199.6,110.4"/>
	<g id="_x37_U7r7V.tif">
		<g>
			<path fill="#FFFFFF" d="M234.1,434.4c-13.9-116.6-20.9-191.7-22.7-207.4s-3.9-16.8-4.4-16.7s-4.4-5.4-10.6-3.3
				c-9.8,3.3-19.5,6.8-29.6,9.1c-16.5,3.7-33.1,4.9-49.9,3.9c-18.2-1.1-36-4.5-53.1-11c-4.6-1.8-9.4-2.2-14.2-2.3
				c-0.5,0-8.1,2-11.5,8.6c-1.4,2.8-1.6,5.3-1.6,6.2c-2.7,49.4-26.1,209.3-29.1,212.7S3.5,434.5,0,432c0-0.8,0-1.7,0-2.5
				c0.9-3.2,10.5-62,10.9-64.9c1.5-10.3,18.8-161.7,20.2-165.2c1.3-3.6,1.3-3.6-2.1-5.3c-6-3-11.8-6.2-17-10.5
				c-2.1-1.8-3.2-5.6-2.1-8c1.1-2.6,3.5-2.2,5.6-2.2c6.4,0,12.4,2.1,18.5,4c6.7,2.1,13.4,4.8,20.7,4c5.9-0.7,10.9-2.8,13.8-8.5
				c3-6,3-12.3,1.5-18.5c-3.8-16.7-10.3-32.4-19.1-47C41,90.9,29.7,75.3,19,59.3c-6.7-10-13.7-19.8-14.2-32.5
				C4.4,18.3,7.3,11.1,14,5.7C18.7,2,24.2,0.5,30,0c0.8,0,1.7,0,2.5,0c7.9,0.7,15.6,2.5,23.4,3.7c16,2.6,32,4.4,48.1,5.2
				c14.9,0.7,29.8,0.8,44.7-0.5c16.1-1.4,32.1-3.3,48.1-5.8c6.6-1,13-2.9,19.8-2.2c9.6,0.9,17.2,5,21.7,13.9
				c3.1,6.2,3,12.7,1.7,19.3c-1.7,8.6-6.5,15.8-11.3,22.9c-10,14.9-20.3,29.5-30.1,44.5c-9.1,13.9-16.3,28.6-21,44.6
				c-1.7,5.8-3.7,11.5-3.1,17.6c1.1,12.9,8.5,19.9,22.2,18.9c7.4-0.5,14.2-3.4,21.2-5.5c5.8-1.8,11.8-3.1,17.9-2.9
				c5.8,0.2,5.8,4.5,4.3,8.4c-0.4,1.2-1.4,2-2.4,2.8c-5.2,4.2-11,7.4-16.9,10.6c-4.4,2.3-4.7,2.8-3.7,7.5c1.8,7.9,1.4,16.1,2.6,24
				c1.4,8.8,2.5,22.3,19.9,188.5c0.2,1.5,1.8,17.5,2,19C239.1,434.4,236.6,434.4,234.1,434.4z"/>
		</g>
	</g>
	<path d="M246.6,220.4"/>
</g>
</svg>
