<?xml version="1.0" encoding="utf-8"?>
<!-- Generator: Adobe Illustrator 26.5.3, SVG Export Plug-In . SVG Version: 6.00 Build 0)  -->
<svg version="1.1" baseProfile="tiny" id="Layer_1" xmlns="http://www.w3.org/2000/svg" xmlns:xlink="http://www.w3.org/1999/xlink"
	 x="0px" y="0px" viewBox="0 0 612 792" overflow="visible" xml:space="preserve">
<g id="Layer_2_00000063619917874026450770000017302727472236391347_">
</g>
<g id="Layer_1_00000041992893814386029260000010886425213925908356_">
	<path stroke="#000000" stroke-width="10" stroke-miterlimit="10" d="M335,289"/>
	<g id="tho9T4.tif">
		<g>
			<path fill="#FFFFFF" d="M156.3,545.4c-2.1,3.9-2.4,7.4-3.1,10.7c-3,14-5.9,28-8.8,42.1c-3.6,17.8-7.1,35.6-10.7,53.4
				c-0.4,2-0.6,4-1.1,5.9c-0.7,3.1-2.8,4.8-6,5.2c-3.4,0.4-6.8,0.7-10.2,0c-3.8-0.9-5.6-3.5-5.1-7.3c1.4-10.9,2.6-21.8,4-32.7
				c0.8-6.4,2-12.7,2.8-19c1.7-13,3.4-26.1,5-39.1c1.1-8.7,2.3-17.3,3.4-26c0.6-4.7,0.1-5.5-4.3-7.3c-3.6-1.4-7.1-2.9-10.7-4.1
				c-8.4-2.8-12.8-8.8-14.1-17.4c-1-6.7-2.2-13.5-2.3-20.3c-0.1-6.8,2.9-11.7,9-14.8c4.2-2.1,8.4-4.4,12.9-5.9
				c2.1-0.7,3.4-2.2,4-4.4c0.6-2.2,1.3-4.3,2.4-6.3c1.6-3,0.8-5.7-0.4-8.6c-2.1-5.1-4.8-9.9-7.3-14.8c-3.7-7.2-6.3-14.9-10.1-22
				c-5.9-10.9-9.8-22.8-15.4-33.9c-4.9-9.7-9.2-19.8-12.5-30.2c-1.9-6.1-3.5-12.3-2.6-18.7c0.8-5.5,3.7-10.4,8.5-13.2
				c4.3-2.5,6.5-5,5.4-10.5c-1.3-6.9-1.2-14.1-3-21c-2.9-11.1-3.6-22.5-5.5-33.7c-0.1-0.6-0.1-1.4,0.2-2c1.6-2.6,0.9-5.3,0.4-8
				c-2.3-12.9-4.3-25.8-7-38.6c-2.2-10.7-4.4-21.4-6.3-32.1c-3-16.8-7.5-33.3-9.3-50.3c-0.1-0.9-0.1-1.8-0.2-2.7
				c-1.2-9.2,8.7-16.6,16.4-15.5c4.3,0.6,8.5,0.6,12.7,2c3.1,1.1,5.5,3.1,8.2,4.7c3.9,2.2,7.8,4.6,10.9,7.9c2.8,2.9,6.6,4.5,9.7,7
				c3.1,2.4,6,5,8.7,7.9c2.8,3,6.3,4.3,10.3,4.3c3.8,0,7.7,0.2,11.5-0.4c5.5-0.8,11,0.5,16.4,0.5c9.1,0.1,18,1.7,27.1,2.4
				c7.2,0.5,14.3,1.7,21.5,2.5c12.2,1.3,24.5,2.1,36.8,2.9c15.5,1,30.9,1.4,46.4,1.5c5.9,0.1,11.8,0.8,17.7,0.9
				c10.6,0.1,21.1-0.4,31.6-1.2c8.3-0.6,16.5-1.7,24.8-2.6c9.6-1,19.2-2.8,29-2.4c4.8,0.2,9.6-0.8,14.4-1.2c8-0.7,15.9-0.8,23.9-0.7
				c3.2,0.1,6.1-0.8,8.1-3.6c3.2-4.5,7.9-7.3,12.2-10.6c6.1-4.6,12.4-9,18.7-13.4c4.9-3.5,10.1-6.5,16.4-6.6c7.4-0.1,14.3,1,19,7.8
				c1.1,1.5,1.9,3.2,1.9,5.1c-0.1,6.5,0.6,13-2,19.2c-0.5,1.1-0.4,2.4-0.6,3.7c-1.8,10.5-2.7,21.3-4.7,31.7
				c-1.6,8.5-2.9,17-4.7,25.5c-1.6,7.2-3,14.5-4.2,21.7c-1.1,6.2-2.9,12.3-4,18.5c-1.2,6.3-3.7,12.4-3.7,19c0,0.6-0.1,1.2-0.4,1.7
				c-2.5,4.7-3.2,9.9-4.2,15.1c-0.2,1.2-0.5,2.4-0.5,3.7c0.3,7.4-0.8,14.6-2.2,21.8c-0.9,4.5-1.2,9.1-1.8,13.6
				c-0.3,2.2,0.6,3.6,2.8,4.2c2.3,0.7,4.6,1.5,6.7,2.6c5.5,2.9,8.9,7.7,10.8,13.3c1.7,5,0.5,10.3-1.3,15.2
				c-3.4,9.1-7.2,18.1-10.7,27.1c-4.6,11.9-11.3,22.6-17.2,33.8c-4.3,8.2-9,16.1-12.7,24.6c-2.7,6.3-6.8,11.8-10.2,17.8
				c-2.1,3.9-4.3,7.7-6,11.8c-1.6,4,0.3,8.7,4.3,10.3c4.9,2,9.9,3.5,14.5,6.1c6.2,3.4,8.4,8.7,7.6,15.5s-2.2,13.5-3.9,20.1
				c-3,12.1-11.5,17-23.4,20c-0.4,0.1-0.8,0.1-1.2,0.1c-5.2,0.9-5.7,1.8-5,7c0.8,6.9,1.3,13.9,2.2,20.9c1.4,11.1,2.1,22.3,3.1,33.5
				c0.7,7.9,1.8,15.7,2.6,23.6c0.9,8.7,1.6,17.4,2.2,26.1c0.2,3.1,0.4,6.1,0.8,9.2c0.2,1.5,0.3,3,0.1,4.5c-0.3,2.4-1.6,4.3-4.2,4.5
				c-4,0.3-8,0.5-11.9-0.5c-4.2-1.1-6.3-3.2-6.7-7.4c-0.9-10.1-3.2-19.9-4.8-29.8c-2-13.1-3.9-26.2-6-39.2
				c-1.6-10.1-3.5-20.2-5.3-30.3c-0.1-0.8-0.1-2.2-1.1-2.2s-1.1,1.3-1.4,2.1c-2.4,6.6-4.9,13.1-7.2,19.7c-1.2,3.6-4,4.7-7.3,5.1
				c-2.8,0.3-5.5,0-8.2-0.7c-3.2-0.9-4.2-2.4-3.9-5.7c0.1-1.4,0.5-2.8,0.8-4.2c2.5-9.6,4.9-19.2,7.4-28.8c0-0.2,0.1-0.3,0.1-0.5
				c1-4.5,0.8-4.8-3.8-4.6c-33.7,1.3-67.5,1.3-101.2,1c-16.5-0.1-33-0.7-49.4-1.2c-14-0.4-27.9-1.6-41.9-1.9c-2.5-0.1-5-0.5-7.4-0.8
				c-5.2-0.6-6.8,1.1-5.8,6.1c1,5.1,2.1,10.1,3.1,15.2c1.3,6,2.5,12.1,3.8,18.1c0.7,3.2-0.8,5.4-4,6s-6.4,0.8-9.7,0
				c-2.4-0.5-4.1-1.8-4.8-4.2c-1.9-6.2-3.8-12.4-5.8-18.6C158.8,553.2,157.7,549.6,156.3,545.4z"/>
		</g>
	</g>
</g>
</svg>
