<svg width="104" height="151" viewBox="0 0 104 151" fill="none" xmlns="http://www.w3.org/2000/svg">
<path d="M97.469 63.8589C99.3545 61.6251 100.477 58.9893 100.477 56.13C100.477 50.5456 96.257 45.7207 90.1068 43.3976C90.8251 42.102 91.2291 40.583 91.2291 39.0194C91.2291 35.6241 89.3885 32.6755 86.695 31.0225C87.5031 29.995 87.952 28.7441 87.952 27.3144C87.952 23.9638 85.2136 21.2386 81.8467 21.2386C80.904 21.2386 80.0511 21.462 79.243 21.8194C79.4675 20.8365 79.5573 19.809 79.5573 18.7815C79.5573 8.41679 68.5588 0.0625 55.0015 0.0625C42.6563 0.0625 32.421 7.03185 30.6703 16.0563C30.4458 16.0563 30.2213 16.0116 29.9969 16.0116C24.7895 16.0116 20.6145 20.2111 20.6145 25.3487C20.6145 26.4209 20.7941 27.4485 21.1532 28.4313C15.9458 30.3077 12.3545 34.3285 12.3545 39.0194C12.3545 40.315 12.6238 41.5659 13.1625 42.7721C5.93497 44.7378 0.727539 50.0095 0.727539 56.1747C0.727539 60.2848 3.01701 63.9929 6.69813 66.5841C3.24147 68.7285 1.04178 71.9898 1.04178 75.6532C1.04178 82.1311 7.9102 87.3581 16.3947 87.3581C21.2879 87.3581 25.5975 85.6158 28.4257 82.9352C29.7724 86.0625 32.9148 88.2516 36.5511 88.2516C39.2446 88.2516 41.6687 87.0454 43.2848 85.169C43.8235 85.3477 44.3622 85.4817 44.9009 85.6158V150.306H58.9071V86.4199C59.356 86.3306 59.8498 86.2859 60.2988 86.1965C61.3762 87.1794 62.8576 87.8048 64.4288 87.8048C66.2244 87.8048 67.8405 87.0454 68.9628 85.7944C70.7136 88.4303 73.7214 90.128 77.1331 90.128C81.0387 90.128 84.3607 87.8495 85.9768 84.5882C86.5604 84.6329 87.1888 84.6776 87.7724 84.6776C96.257 84.6776 103.125 79.4506 103.125 72.9726C103.08 69.2199 100.881 66.0033 97.469 63.8589Z" fill="#FCFDF8"/>
</svg>
