<?xml version="1.0" encoding="utf-8"?>
<!-- Generator: Adobe Illustrator 26.5.3, SVG Export Plug-In . SVG Version: 6.00 Build 0)  -->
<svg version="1.1" baseProfile="tiny" id="Layer_1" xmlns="http://www.w3.org/2000/svg" xmlns:xlink="http://www.w3.org/1999/xlink"
	 x="0px" y="0px" viewBox="0 0 500.1 753.2" overflow="visible" xml:space="preserve">
<g id="pMJB6V.tif">
	<path fill="#FFFFFF" stroke="#000000" stroke-width="0.75" stroke-miterlimit="10" d="M234.5,535.6c0-22.5,0.8-45-0.4-67.5
		c-0.4-7.9,5.6-11.6,6.8-18.3c2.3-13.7-4.9-24.7-7.7-36.9c-0.9-3.8-1.3-8.2-0.3-11.9c1.7-6-2.1-5.7-5.1-4.8
		c-11.9,3.8-14.8-2-14.3-12.3c0.1-2,0.2-5.1-1-6c-2.1-1.5-4.4,0.8-6.1,2.1c-7.3,5.8-14.6,11.6-21.6,17.7c-5.6,4.9-11.4,5.4-18,2.1
		c-9.6-4.9-19.8-9.1-28.9-14.7c-9.5-5.9-19.1-6.3-29.6-4.5c-14.3,2.4-17.8-1.5-13.9-15.1c0.9-3.1-1.8-3.3-3.4-3.9
		c-6.8-2.8-9.5-7.8-9.3-14.9c0.3-13.8-0.1-27.7,3.5-41.2c4.2-15.6,7.7-17.9,23.8-15.8c29.4,3.9,58.8,7.2,88.5,4.8
		c7.4-0.6,11.3-1.3,10.2-11c-4.9-42-21-74.9-64.7-88.8c-18.8-5.9-37.5-11.7-56.8-15.7c-8.5-1.7-16.9-3.6-25.4-5.3
		c-4.5-0.9-7.3-3.3-7.9-7.8c-1.5-11-1.9-21.9,1.6-32.6c2.1-6.5,6.1-8.4,13-7.7c22,2.2,44,6.2,66.1,2.6c16.4-2.6,28.3-10.5,34.6-27
		c7.8-20.7,8.7-42.7,13.2-63.9c0.1-0.5,0.1-1,0.2-1.5C187.3,8.1,191.8,4.3,220,4.4c26.8,0,53.6,0.5,80.4,0.9
		c9.4,0.1,14.9,5.4,17.9,14c6.9,19.5,7.9,40.1,11.7,60.2c6.5,33.8,17.4,46.1,45.6,49.5c15.8,1.9,31.6-0.5,47.3-1.7
		c27.5-2,31.4,2.3,30,30.7c-0.5,9.8-4,15.2-14.6,17c-26.9,4.8-53.2,11.5-79.2,20.3c-38.9,13.2-55.7,42-61.1,80
		c-2.6,18.3-2.2,17.5,16.1,19.1c30.2,2.6,59.7-3.4,89.6-5.4c7.6-0.5,11.3,2.9,13.7,9.5c6.1,16.9,6.1,34.3,5.3,51.8
		c-0.4,9.2-9.3,10.3-15.2,14.2c-1.3,0.9-3.4,2.1-3.4,3.2c0,2.3,2.6,1.7,4,1.9c5.9,0.9,9.6,4.3,8.6,10c-1,5.5-6.5,4.2-10.4,4
		c-9.6-0.5-19.2-1.5-28.8-2.1c-2-0.1-4.3,0.6-6.1,1.5c-9.1,4.4-18.1,9.2-27.3,13.6c-16,7.7-19.2,7.2-32-5.3
		c-4.9-4.8-9.9-9.4-15.9-12.8c-3.4-1.9-5.3-1.5-5.1,2.9c0.7,11.4-1.9,19.2-16,14.6c-1.6-0.5-3.8-1-3.6,3.1c0.2,9.8,4.7,21-7.5,27.9
		c-3.7,2.1-1.2,25.9,2.4,28.4c3.5,2.5,3.9,5.8,3.8,9.7c0,46.7,0,93.3-0.1,140c0,5.2,2.4,6.8,6.4,9.5c21.9,14.7,19.3,12.6,43.3,17.9
		c3.2,0.1,7.9,0.3,13.6,0.5c30.3,1,56.3,1.8,82.6,0.1c43.5-2.7,60-10.2,69.7,0.4c2.5,2.7,5.6,8,4.7,18.9c-0.5,2.4-1.3,5.9-2.2,10.2
		c-1.9,9.9-1.8,11.8-2.9,15.6c-0.8,2.7-3.2,10.9-9.6,16.5c-6.5,5.6-20.2,11-30.8,3.3c-9.5-6.8-11.9-20.7-7.5-28.1
		c4.7-7.8,16.2-7,17.2-13.7c0.5-3.6-2.4-6.7-2.9-7.1c-6.4-6.8-20.2-3.3-30.8-0.6c-32.4,8.1-48.5,12.4-49.7,12.4
		c-31.1,1.1-62.2,2-93.3,3.1c-2.1,0.1-5.6,0.4-8.5,3c-4.3,3.8-2.9,9-3.8,28.4c-0.5,10.8-1.1,12.6,0.3,16.7c2.3,6.7,5.6,7.1,7.3,13.5
		c0.2,0.8,3.2,12.1-3.3,18.6c-4.6,4.6-11.3,4-18.8,3.4c-6.5-0.5-14.3-1.2-18.5-7.3c-3.2-4.7-2.6-10.2-2.4-11.5c0.8-6.8,5-8.5,8-15.1
		c1.1-2.5,1-3.2,1.3-23.5c0.2-14.3,0.4-20.2-3.9-23.6c-1.4-1.1-2.7-1.7-3.5-1.7c-13.9-1.1-27.9-2.3-41.8-2.8
		c-26.8-1-53.6-1.5-80.4-2.2c-9-0.2-15.9-5-23.1-9.7c-10.1-6.6-21.5-7.7-33.1-5.3c-6.4,1.3-9.2,5.5-8.2,12.1c1,6.4,6.1,4.9,10.2,5.1
		c7.8,0.4,16.1,15.1,13,23.2c-4.8,12.6-16.3,21-27.3,21.3c-1.8,0.1-8.3,0.2-14.6-3.9c-4.7-3-8-7.5-11.4-16.1
		c-6.2-15.6-13.3-33.7-4.1-46.7c4.7-6.5,11.5-9,18.4-11.6c9.4-3.6,19.7-4.5,31.1-3c16.6,2.1,30.8,13.3,48.3,11
		c28.1-3.8,56.3-5.5,84.5-7.6c13.6-1,27.1-6.9,38.4-15.9c0.6-0.5,1-1,1.3-1.5c1.2-2.1,0.8-4.3,0.7-4.8
		C233.9,603.3,234.1,575.6,234.5,535.6z"/>
</g>
</svg>
