<?xml version="1.0" encoding="utf-8"?>
<!-- Generator: Adobe Illustrator 26.5.3, SVG Export Plug-In . SVG Version: 6.00 Build 0)  -->
<svg version="1.1" baseProfile="tiny" id="Layer_1" xmlns="http://www.w3.org/2000/svg" xmlns:xlink="http://www.w3.org/1999/xlink"
	 x="0px" y="0px" viewBox="0 0 612 792" overflow="visible" xml:space="preserve">
<g id="Layer_2_00000065771276647751037400000013955028660368347269_">
</g>
<g id="Layer_1_00000020366426750537072740000011789934313516146101_">
	<path stroke="#000000" stroke-width="10" stroke-miterlimit="10" d="M335,289"/>
	<g id="updKgw.tif">
		<g>
			<path fill="#FFFFFF" d="M332.4,69.5c1,0.4,2,0.3,3,0.3c16.7-0.2,33.3,0.8,49.9,1.2c4.9,0.1,9.8,0.6,14.7,0.8
				c10.4,0.4,20.1,8.9,21.6,20.9c2.2,17.9,4.4,35.9,6.8,53.8c1.9,13.5,3.1,27.2,4.8,40.7c1.8,14.4,3,28.9,4.4,43.3
				c1.2,12.9,2.4,25.9,3.4,38.8c0.7,9.5,1.1,19,1.7,28.5c0.2,2.9,0.4,5.8,0.5,8.6c0.5,18-1.3,35.8-4.8,53.4c-0.6,3.2-0.1,3.7,3.3,3
				c3.2-0.7,6.4-1.5,9.8-1.8c5.4-0.4,10.2,0.7,14.3,4.5c2.1,2,2.8,1.6,3.1-1.3c0.1-1.3,0.2-2.7,0.2-4.1c0-15.5,0.1-30.9,0-46.4
				c0-8.5-1.6-16.7-4-24.8c-0.6-2-1.6-3-3.8-2.8c-1.4,0.1-2.9-0.2-4.3-0.2c-5.3-0.2-5.9-7-4-10.1c0.5-0.9,1.4-1.2,2.4-1.2
				c12.6-0.5,25.3-1.4,37.9-0.5c2.4,0.2,4.8,0.2,7.1,0.3c4.2,0.2,6.2,2.8,5.4,7c-0.8,3.7-1.2,4-4.9,4.5c-2,0.3-3.9,0.2-5.8,0.2
				c-3.8-0.1-4.4,0.3-5.4,3.9c-1.4,5.1-2.6,10.2-3.5,15.4c-0.9,5.6-1,11.3-1.2,17c-0.6,21.2-0.9,42.5-1.1,63.7
				c-0.1,5.2-0.2,10.5-0.5,15.8c0,0.8,0.1,1.8-0.5,2.2c-2.4,1.5-1.8,3.8-1.8,5.9c-0.1,4.3,0.2,8.7-0.5,13c-0.5,3-1.9,4-4.8,3.1
				c-4.2-1.3-8.1-3.4-12.1-5.3c-5.2-2.4-10.2-5-15.8-6.2c-1.2-0.2-2.2-0.2-3.2,0.1c-4.4,1.4-8.7,2.9-13.1,4.3c-4,1.3-8,2.9-12.2,3.6
				c-3.3,0.6-5.9,2-8.3,4.5c-2.7,2.9-6.1,5.1-8.7,8.2c-0.5,0.6-1.1,1.2-0.6,2c0.4,0.7,1.2,0.5,1.9,0.5c11.3,0.3,22.4,2.2,33.7,3.4
				c4.8,0.5,9.5,1.8,14.3,2.4c1.3,0.2,2.8,0.4,2.8,2c0,1.7-1.5,2.1-2.9,2.2c-1.8,0.1-3.6,0.3-5.3,0.4c-1.5,0-2.8,0.4-4,1.3
				c-1.4,1.1-3,1.5-4.8,1.4c-3.9-0.3-7.8,0.1-11.8-0.8c-4.2-1-8.6,0.3-12.9,0.7c-9.3,1.1-18.7,0.4-28,0.5c-3.1,0-5.9,0.3-8.4,2.6
				c-2.5,2.2-5.4,4.1-8.6,5.4c-0.2,0.1-0.4,0.1-0.4,0.3c-1.7,3.5-5.4,3.2-8.4,4.3c-1.7,0.6-3.1,0.3-4.2-1.3
				c-2.5-3.6-7.4-3.6-10.1-0.1c-0.6,0.7-0.5,1.6-0.5,2.4c-0.1,2.6-0.5,4.9-3.2,6.1c-1.4,0.6-1.4,2.1-1.4,3.3
				c-0.1,5.4-0.4,10.9-0.3,16.3c0,2.8-1.3,4.5-3.8,5.3c-1.6,0.5-3.3,0.9-4.9,1.3c-3.1,0.7-3.8,1.4-3.5,4.5c0.3,3.8,0.4,7.6,0.3,11.5
				c0,1.8-0.3,3.6-0.3,5.3c0,1.3,0.4,2.3,2,2.5c4,0.6,4.5,1.2,4.5,5.4c0,15.2,0,30.4,0,45.6c0,4.4,0.2,8.8-0.3,13.2
				c-0.4,3.4,1.8,5.7,3.9,7.9c0.3,0.3,0.9,0.5,1.4,0.5c9.3-0.6,18.2,1.6,27.2,3.3c17.2,3.4,34.1,7.8,50.5,14.1
				c23.8,9.2,48.6,15.3,72.5,23.9c5.6,2,11.2,4,16.8,5.9c2,0.7,3.1,1.9,3.4,4c0.7,4,2,8.4,0.7,12.1c-1.7,4.8-0.9,9.5-1.3,14.3
				c-0.1,1.6,0.2,3,0.7,4.5c3.3,9,0.2,16.9-6.2,21.9c-7.1,5.5-19.6,4.1-25.5-5.1c-4.3-6.6-4.8-13.6-0.6-19.9c4-6,10-9.9,18-8.6
				c1.2,0.2,2.8,0.7,3.4-0.9c0.5-1.4,0.3-2.7-0.3-4.4c-1.5-4-4.8-4-7.9-4.7c-19.7-4.7-39.4-8.8-59.2-12.7c-1-0.2-2-0.5-2.8,0.4
				c-0.6,0.7-1.4,0.5-2.1,0.1c-1.8-1.1-3.9-1.2-5.9-1.1c-1.7,0.1-3.2-0.3-4.7-1c-1.6-0.8-3.2-1.3-4.9-1c-2.4,0.3-4-1.6-6.2-2
				c-9.9-1.8-19.8-3.1-29.7-4.4c-9.4-1.2-18.9-2.2-28.4-2.7c-3.3-0.1-6.6,0-9.9,0c-1.9,0-2.2,1.1-2.8,2.8c-2,5.9-1.1,12-1.5,18.1
				c-0.1,2.1-1.1,3.6-3.3,4c-1.4,0.2-1.8,1.1-1.8,2.3c0,4.9-0.1,9.8-0.1,14.7c0,2.5,0.4,4.9-1.4,7c-0.5,0.6-0.4,1.5-0.4,2.2
				c-0.3,4.2,0.3,8.5-0.5,12.7c-0.2,1.1,0.4,2.1,0.8,3.2c3.2,9.1-2.1,21.1-11.2,24.3c-14.6,5.2-26.5-6.8-25.7-19.4
				c0.5-7.8,5-13.8,10.3-18.7c3.3-3,8.2-3.4,12.8-2.4c0.8,0.2,1.7,0.8,2.4,0c0.6-0.8,0.1-1.6-0.3-2.4c-0.7-1.3-0.8-2.8-0.7-4.2
				c0.4-6.4-0.4-12.7-0.3-19.1c0-0.4-0.2-0.8-0.3-1.8c-1.2,2.2-2.6,2-4.2,1.2c-1.7-0.8-2.2-2.3-2.1-4c0-2.1-0.3-4.3,0.1-6.4
				c0.7-4.4-1.7-8.2-1.8-12.4c0-1.5-1.6-1.5-2.8-1.6c-6.8-0.5-13.6,0.2-20.3,0.8c-14.4,1.2-28.7,3.2-42.9,5.4
				c-6.5,1-12.9,2.2-19.3,3.4c-0.3,0-0.5,0-0.7,0.2c-5.6,3.7-11.9,3.1-18.1,3.4c-3.5,0.2-6.7,2-10.1,2.5c-9.8,1.4-19.5,3.7-29.1,5.8
				c-5.3,1.2-10.6,2.4-15.9,3.6c-2.7,0.6-5.3,3.6-5.3,6.3c0,6.4-0.2,12.7,0.5,19.1c0.9,8-4,16.8-11.4,19.5
				c-6.5,2.3-15.2,1.8-20.8-5.4c-2.6-3.3-3.9-7.3-3.8-11.7c0.1-7,2.3-12.9,7.6-17.8c2.8-2.5,6.1-2.9,9.4-3.1c2.2-0.2,4.4,0,6.6-0.1
				c2.2-0.1,2.6-0.8,1.6-2.6c-1.5-2.7-0.9-5.7-0.6-8.5c1-8.9-0.4-8.3,8.9-11.5c22.5-7.8,45.1-14.9,67.8-22.1
				c5.5-1.7,10.7-4.6,16.3-6.4c20.7-6.8,41.7-12.8,63.4-16c4.6-0.7,9.2-1.9,13.9-1c0.7,0.1,1.3-0.2,1.8-0.8c2-2.3,3.7-4.6,3.7-8
				c-0.2-19.7-0.1-39.4-0.1-59.1c0-3.8,0.3-4.2,4.3-4.7c1.3-0.2,1.8-0.8,1.8-2c0-6.5,0-12.9,0-19.4c0-1.2-0.6-1.8-1.8-2.1
				c-1.7-0.4-3.5-0.8-5.2-1.4c-3.6-1.2-4.6-2.6-4.7-6.3c-0.1-4.6-0.1-9.2-0.1-13.8c0-2.4-0.3-4.8-2.9-6c-0.8-0.4-1.3-1.2-1.4-2
				c-0.3-3.1-1.4-5.2-4.4-6.9c-2.2-1.2-4-1.7-6.1-1c-0.7,0.2-1.7,0.6-1.9,1.1c-1,2.7-3.1,2.3-5.2,2.1c-2-0.2-3.8-0.4-5.6-2
				c-2.8-2.4-6.4-3.9-9.2-6.4c-3.5-3.2-7.4-3.7-11.9-3.7c-10.5,0.1-21.1,0.4-31.5-1.3c-0.3-0.1-0.7-0.2-1,0
				c-3.3,1.8-5.7-0.5-8.4-1.7c-0.7-0.3-1.2-0.5-1.9-0.4c-6.3,0.9-12.5,0.3-18.8,0.4c-0.3,0-0.5,0-0.8,0c-1.6-0.4-3.8,0-4-2.3
				c-0.2-2.6,2.2-2,3.7-2.5c0.6-0.2,1.2-0.3,1.7-0.4c3.8-1,3.8-1.2,1.7-4.3c-1.1-1.6-0.4-3.3,1.5-3.7c1.1-0.2,2.2-0.1,3.3-0.1
				c10.9,0,21.7-0.1,32.6-0.1c0.9,0,2.2,0.5,2.7-0.9c0.4-1.1-0.5-1.9-1.2-2.6c-2.2-2.2-4.8-4-6.8-6.5c-0.7-1-2-1.3-3.1-1.6
				c-7.8-2.3-15.7-4.5-23.3-7.5c-5.4-2.1-10.3-0.3-15.3,1.7c-6.3,2.6-12.2,6-18.6,8.2c-4.3,1.5-5.9,0.6-6.1-3.9
				c-0.2-3.8-0.2-7.6-0.4-11.4c-0.1-2.3,0.4-4.8-1.8-6.6c-0.6-0.5-0.4-1.4-0.4-2.2c-0.2-11.4-0.3-22.8-0.5-34.1
				c-0.3-18-0.5-36-1.1-54c-0.2-8.1-2.4-15.9-4.3-23.8c-0.6-2.4-2-3.8-4.8-3.5c-1.8,0.2-3.7,0.1-5.6,0c-3.5-0.2-5.6-2.7-5.5-6.2
				c0.2-3.9,1.8-5.5,5.7-5.7c13.8-0.7,27.7-0.5,41.5,0.1c4.1,0.2,5.6,1.5,5.7,5.2c0.1,3.5-1.8,5.8-5.2,6.3c-0.8,0.1-1.5,0.2-2.3,0.3
				c-4.7,0.2-4.6,0.2-6,4.7c-2.4,7.8-3.3,15.8-3.3,23.9c0,15,0.1,30.1,0.2,45.1c0,1.7,0.2,3.4,0.4,5.1c0.2,1.4,0.9,1.8,2.1,1.1
				c0.6-0.3,1.2-0.7,1.7-1.1c3.7-3.7,8.4-4,13.3-3.7c2.8,0.2,5.6,0.6,8.3,1.1c3.3,0.6,4,0.1,3.3-3.1c-1.6-7.9-2.6-15.9-3.5-23.9
				c-1.3-11.6-1.4-23.2-0.6-34.9c0.6-9.5,1-19,1.7-28.5c1.4-19.1,2.9-38.3,4.9-57.4c1.6-15,3-30.1,4.7-45.1
				c2.9-25.1,6.2-50.2,9.2-75.3c1.1-9.3,5.3-16.4,14-20.4c3.3-1.5,6.8-2,10.4-2.2c11.2-0.5,22.4-0.6,33.6-1.3
				c9.3-0.5,18.7-0.3,28-0.5c1.1,0,2.2,0.1,3.3-0.3C312.7,69.5,322.6,69.5,332.4,69.5z M165.3,408.4c0,0.2,0,0.6,0,1
				c0.2,3,1,3.5,3.7,2.3c1.5-0.7,3-1.3,4.4-2c2.9-1.4,2.9-1.4,0.8-3.6c-0.7-0.7-1.3-1.6-1.8-2.5c-0.8-1.3-1.5-2.7-2.3-4
				c-0.4-0.6-0.8-1.5-1.7-1.3c-0.8,0.2-0.6,1.1-0.7,1.7c-0.4,1.4,0,3.2-1.2,4.3C165.3,405.5,165.2,406.8,165.3,408.4z M471,408.9
				c0-1.4-2.5-6.8-3.1-7.3c-0.6-0.4-1-0.1-1.3,0.3c-0.5,0.7-0.9,1.4-1.3,2.2c-3.3,5.2-3.1,5.7,2.9,7.9c1.7,0.6,2.4,0.1,2.7-1.5
				C471,409.8,471,409.2,471,408.9z"/>
		</g>
	</g>
</g>
</svg>
