<?xml version="1.0" encoding="utf-8"?>
<!-- Generator: Adobe Illustrator 26.5.3, SVG Export Plug-In . SVG Version: 6.00 Build 0)  -->
<svg version="1.1" baseProfile="tiny" id="Layer_1" xmlns="http://www.w3.org/2000/svg" xmlns:xlink="http://www.w3.org/1999/xlink"
	 x="0px" y="0px" viewBox="0 0 612 792" overflow="visible" xml:space="preserve">
<g id="Layer_2_00000119098220256738976610000003031761541638647730_">
</g>
<g id="Layer_1_00000111885796323094570410000001485200076987413931_">
	<path stroke="#000000" stroke-width="10" stroke-miterlimit="10" d="M335,289"/>
	<g id="kTlFEd.tif">
		<g>
			<path fill="#FFFFFF" stroke="#111111" stroke-miterlimit="10" d="M236.6,422.5c-7.3-7-15.3-8.7-23.9-9.3
				c-20.3-1.5-40.4-4.8-60.3-9.1c-10-2.1-16.5-6.6-17.1-17.9c-0.4-7.5-0.7-15-0.2-22.4c0.6-9.5,6-16.2,13.1-22
				c5.4-4.4,10.8-8.9,17.1-12.1c5-2.5,10.1-4.5,15.8-3.8c4.2,0.5,5.8-0.9,5.9-5.5c0.2-25.8,0.3-51.6,1.1-77.4
				c0.8-26.4,2.4-52.8,3.7-79.3c0.7-14.6,1.4-29.2,2.1-43.9c0.7-14.5,1.4-28.9,2-43.4c0.1-3.4,1.7-4.7,5-4.7
				c10.7,0.1,21.3,0.9,31.9,1.8c7.1,0.6,14.3,0.7,21.4,1.1c32.8,1.7,65.6,1.8,98.4,0.9c24.3-0.7,48.5-2.5,72.7-3.7
				c7.8-0.4,7.7-0.1,8,7.5c1.3,27.6,2.5,55.2,4.1,82.8c1.3,22.4,2.3,44.9,3,67.3c0.9,30.8,2.1,61.6,1.9,92.4c0,2.5,0.3,4.3,3.5,4
				c13.3-1.2,23,6.2,32.6,13.8c0.9,0.7,1.7,1.6,2.6,2.3c7.8,5.8,12.6,13.3,13.1,23c0.5,8.9,0.5,17.9-1.4,26.8
				c-1.3,5.8-4.6,8.8-10,10.5c-10.6,3.3-21.5,5.2-32.5,6.9c-14.6,2.3-29.2,4-44,5.1c-2.3,0.2-4,1.5-5.9,2.5
				c-4.8,2.6-9.6,5.3-14.5,7.8c-1.1,0.6-2.5,1-3.7,1c-1,0-2.3-3-2.8,0.5c-0.3,2.3,0.5,3.3,3,3.3c4.8-0.1,9.7,0.2,14.5,0.2
				c11.5,0.1,23,0.7,34.5-0.2c8.3-0.6,16.5,0.9,24.7-0.5c3.1-0.5,6.3-0.5,8.8,2.3c0.9,1,3.1,0.9,3.1,2.9c-0.1,2.3-2.3,2.9-3.8,3.4
				c-2.4,0.9-5.1,1.5-7.7,1.6c-18.3,0.2-36.6,0.3-54.9,0c-4.2-0.1-4.4,2.4-5.1,5.1c-1.5,6.4-1.7,6.5-7.4,3.8
				c-8.2-3.9-16.8-1.9-25.3-1.8c-0.4,0-1.2,0.5-1.2,0.7c0.5,4.5-4.3,6.2-5.3,10.1c-1.9,7.7-10.2,13.4-18.1,13.4c-3.5,0-7,0.1-10.5,0
				c-2.9-0.1-4.5,0.8-4.3,3.9c1.1,15.6-0.5,31.3-0.1,46.9c0,1.5-0.1,3.1,1.7,3.8c4.3,1.6,4.5,5.2,4.5,9c-0.2,21-0.1,42-0.4,63
				c-0.1,8.2,1.1,16.3,1.4,24.4c0.2,4.6,3.1,8,6.7,11.1c9.4,8.2,21,8,32.3,9.2c13.7,1.4,27.5,2.9,41.2,4c5.1,0.4,10.3-0.3,15.4-0.3
				c6,0.1,13-1.4,17.7,1.1c4.5,2.4,8.8,2.8,13.3,3.6c7.2,1.4,14.1,0.8,21-2c8.4-3.5,16.9-7.4,26.3-7.5c15.8-0.1,31.9-1,45.9,8.9
				c5.6,3.9,6.6,6.9,3.9,13.2c-1.1,2.6-1.3,5.1-1.1,7.8c0.7,7.5-2.2,14.1-4.4,21.1c-2.9,9.1-10,14-16,19.6c-8.2,7.6-18.1,6.5-26-6
				c-8-12.6-3.1-26.2,11.2-32.3c1.1-0.5,2.2-0.8,3.3-1.1c2.4-0.8,3.4-2.5,3.7-4.9s-1.5-2.9-3.1-3.9c-10.3-6-20.9-4.1-31.5-1.5
				c-6.4,1.6-12.7,3.5-18.1,7.8c-6,4.8-13.6,3.6-20.6,4.5c-3,0.3-6,0.2-9,0.2c-34.3-0.2-68.6,2-102.9,2.1c-3.3,0-6.6,0.6-9.9,1
				c-1.3,0.1-2.8,0.4-3.3,1.8c-0.5,1.4,0.9,2,1.6,2.9c2.4,3.3,6.8,4.7,7.4,9.6c0.9,7.6,0.6,14.6-6.4,19.5c-2.2,1.6-2.3,3.4-1,5.6
				c7.4,11.9,5.1,25,4,37.8c-0.2,2.4-2,3.7-4.3,4.2c-9.6,2.2-19.2,2-28.7,0c-2.6-0.5-4.1-2.1-4.3-4.8c-0.8-9.1-1.5-18.2-0.1-27.4
				c0.6-3.6,2.7-6.4,4.2-9.5c1.4-2.9,0.8-4.5-1.5-6.4c-8.3-6.6-8.6-19.7-0.7-26.4c0.6-0.5,1.3-1.1,1.8-1.7c0.8-1.1,2.9-1.8,2.2-3.6
				c-0.7-1.7-2.7-1.6-4.3-1.8c-15.9-1.8-31.9-1.2-47.9-1.8c-23.6-0.9-47.3-0.9-71-1.3c-10.2-0.2-19.3-2.9-28.8-7.9
				c-12.8-6.7-27.4-10.6-42.1-3.7c-1.9,0.9-4.7,1.6-4.5,4.7c0.2,3.1,2.5,4.4,5.2,5.3c9.2,3.2,14.6,9.6,17.3,19.1
				c1.7,6-2,9.5-4.4,13.6c-5.3,9.3-9.9,11.2-20.2,9.3c-0.8-0.1-1.6-0.3-2.4-0.6c-3.5-1.3-15.9-14.7-17.2-18.3
				c-0.6-1.7-1.3-3.4-2.3-5c-2.1-3.5-3.6-7.3-4-11.2c-0.8-6.8,0.2-13.6-1.4-20.5c-1.3-5.8,1.8-8.2,8.7-11c12.2-5,25-6.8,37.9-7.6
				c7.9-0.5,16,1.5,23.1,5.3c10.9,5.9,22.4,6.4,33.9,3.7c5-1.2,10.1-4.7,15.2-3.8c7.1,1.4,14,0.3,20.9,0.1
				c16.1-0.5,32.1-2.5,48.2-4.3c6.9-0.8,13.9-0.9,20.6-3.3c2.4-0.8,4.6-1.7,5.8-4.3c0.4-1,1.5-2.2,2.4-2.4c6.2-1.3,7.2-6.4,7.2-11.1
				c0-15.6-0.2-31.3,0.1-46.9c0.3-13.9,1-27.9,1.1-41.9c0-2.2,1.4-4.1,3.5-4.3c3.6-0.4,3.6-2.5,3.5-5.2c-0.1-15.2-0.2-30.3-0.1-45.5
				c0.1-4.7-2.3-6.1-6.2-6.3c-2.3-0.1-4.7-0.3-7,0c-7.3,1.1-12.9-1.4-17.3-7.3c-1.7-2.2-3.3-4-3.3-7c0-3.4-1.6-5.2-5.3-4.9
				c-4.4,0.3-8.6-0.9-12.2-3.6c-2.9-2.2-6.1-0.9-9.2-1.3c-2.9-0.4-6.2,0.7-8.2-3.2c-0.9-1.8-3.7-0.8-5.6-0.5
				c-14.1,2.2-28.2,4.5-42.2,6.9c-5,0.9-9.3,2.8-10.1,8.7c-0.4,3.4-2.3,5.7-5.7,6.1c-3.9,0.5-8.4,1.5-11-2.6
				c-7.2-10.9-9.7-22.9-6-35.6c1.3-4.6,5.3-6.3,9.6-6.8c3.9-0.5,6.6,1.2,8.3,4.9c1.9,4,5.5,5.2,9.6,4.9
				C201.5,427.5,218.6,424.8,236.6,422.5z"/>
		</g>
	</g>
</g>
</svg>
