<?xml version="1.0" encoding="utf-8"?>
<!-- Generator: Adobe Illustrator 26.5.3, SVG Export Plug-In . SVG Version: 6.00 Build 0)  -->
<svg version="1.1" baseProfile="tiny" id="Layer_1" xmlns="http://www.w3.org/2000/svg" xmlns:xlink="http://www.w3.org/1999/xlink"
	 x="0px" y="0px" viewBox="0 0 196.2 373.6" overflow="visible" xml:space="preserve">
<g id="f2UonF.tif">
	<g>
		<g>
			<path fill="#FFFFFF" d="M88.9,374c-6.3-1.6-7.7-6.2-7.8-11.4c-0.1-4.4,2.7-6.5,6.6-7.7c1.2-0.4,2-1.2,1.8-2.6
				c-0.8-5.1-0.4-10.2-0.2-15.2c0.2-6,0.6-12.2,3.6-17.7c0.4-0.8,0.8-1.7,0.4-2.6c-0.7-1.6-5.1-3.9-6.9-3.8
				c-5.7,0.4-11.4,0.9-17.2,1.2c-2.2,0.1-3.5,0.7-4.2,3c-1,3.1-3.2,4.1-6.2,3.1c-1.3-0.4-2,0-2.9,0.8c-2.5,2.2-5.5,1.7-7.1-1.2
				c-0.5-0.9-1.1-1.9-1.3-3c-0.5-2.4-2-2.8-4.1-2.5c-8.3,1.3-15.6,4.7-21.8,10.3c-1.7,1.5-3.3,3.3-4.2,5.5c-0.7,1.9,1.1,2.8,1.7,4.1
				c0,0.1,0.1,0.2,0.1,0.2c0,3.5,0.9,7,0.1,10.5c-0.7,3-3.4,4.6-6.3,3.5c-1.4-0.5-2.2-0.4-3.3,0.7c-1.8,1.8-4.4,2-6.4,0.4
				c-3-2.5-3.5-5.9-3.2-9.5c0.3-3.3,1.8-5.7,5.3-6.4c1.5-0.3,2.5-1.1,3.1-2.6c1.2-3,2.7-5.7,4.7-8.2c6.8-8.4,15.7-13.1,26.2-14.5
				c4-0.5,8.1-1.2,12.1-1.7c2-0.2,3.1-1.2,3.2-3.1c0.2-5.3,4.2-8.3,7.1-11.9c0.2-0.3,0.7-0.5,1.1-0.5c4.9-1.1,9.8-1.3,14.7-0.1
				c4.9,1.2,9.6,2.5,14.1,4.8c2.7,1.4,4.1,0.4,4.2-2.6c0-1.1,0-2.2,0-3.2c0.5-9.7-1.4-19.4,0.7-29.1c0.1-0.5-0.1-1-0.5-1.3
				c-1.3-1.1-1.3-2.6-1.3-4.1c0.1-3.6,0.4-7.2,0.1-10.7c-0.3-3.6,1.6-8-3.1-10.4c-0.7-0.4-0.6-2.1-1.7-1.8c-1.2,0.3-0.7,1.7-1,2.6
				c-0.1,0.3-0.1,0.7-0.9,0.7c-0.3-1.8-1.6-2.6-3.4-2.8c-1.6-0.1-3.2-0.2-4.7-0.1c-1.9,0.1-3.5-0.2-4.3-2.1c-0.5-1-1.3-1.4-2.4-1.4
				c-11,0-22,0.1-33,0.1c-1.3,0-2.3,0.4-2.8,1.6c-0.9,2.1,0,6.4,1.6,8.1c0.9,0.9,1.7,1.9,1.6,3.3c-0.2,2.3-2,4.6-4.1,4.8
				c-2,0.3-4.3-1.1-5.2-3.2c-1-2.3-0.5-4.4,1.7-5.9c1.3-0.8,1.8-1.9,1.7-3.3c-0.1-1,0-2,0-3c0-4.2,1-5.2,5.4-5.3c2.3,0,4.7,0,7-0.1
				c0.8,0,1.9,0,2.1-1c0.2-0.9-0.7-1.2-1.4-1.6c-2.5-1.5-4.9-3.2-7.1-5.1c-0.9-0.8-1.9-1-3-1c-4.8,0-9.6,0-14.4-0.9
				c-1.1-0.2-2.4-0.3-2.6-1.6c-0.5-3.6-1.3-7.4,1.2-10.7c0.3-0.4,0.7-0.8,0.3-1.3c-0.3-0.5-0.9-0.3-1.4-0.3c-1.3,0.1-2.7,0.3-4,0.3
				c-3.6-0.2-4.8-1.7-4.3-5.3c0.1-0.7,0.1-1.3,0.1-2c-0.1-3.7-0.5-7.3-0.3-11c1-14.3-0.2-28.7,1.7-43.1c0.8-6.3,0.9-12.8,1.8-19.1
				c0.1-1,0.6-1.7,1.3-2.3c4.2-3.2,11.2-1.5,13.5,3.2c1.1,2.2,2.3,4.4,3.4,6.6c0.2-0.1,0.4-0.2,0.6-0.2c0-1.1,0-2.1,0-3.2
				c0.1-12.3-0.1-24.7,0.6-37c1.1-21,0.3-42,1.3-63C37,20.7,37.2,14.3,35.8,8c-1-4.5,1-6.5,5.5-6.7c2.2-0.1,4.3-0.1,6.5,0
				c9.5,0.7,19,0.4,28.5,0.5C92.2,2,108.1,1.3,124,1c7.8-0.1,15.7-0.1,23.5-0.3c5.6-0.1,11.1-0.5,16.7-0.7c1.1,0,2.3-0.2,2.9,1
				c0.9,1.9,2,3.9,1.3,6c-1,2.9-0.8,5.7-0.8,8.6c0.1,23.6,0.6,47.1,1.4,70.7c0.5,14.1,1.2,28.3,1.3,42.4c0,2.2,0,4.4,0.8,6.8
				c1-1.2,0.8-2.3,0.6-3.3c-0.5-2.2-0.2-4.1,0.9-6c0.7-1.1,1.1-2.4,1.6-3.7c2.1-5.2,8.2-7.3,13.2-4.6c1.3,0.7,2.1,1.8,2.2,3.4
				c0.5,12.2,2.5,24.4,2.2,36.6c0,0.1,0,0.2,0,0.2c0.7,12.9,0.6,25.9,1.6,38.7c0.2,2.1-1,3.1-3,3c-1.6,0-3.2-0.3-4.7-0.3
				c-2.5,0-3.4,1.5-1.9,3.5c1.1,1.6,1.6,3.3,2.1,5c1.5,4.7-0.7,7.7-5.5,8c-4.1,0.3-8.1,0.4-12.2,0.6c-1.8,0.1-3.4,0.6-4.8,1.8
				c-4.2,3.6-8.9,6.1-14.3,7.3c-4,0.9-8,1.3-12.1,1.3c-1.5,0-3.2,0-3.9,1.6c-1.4,3-3.5,4.1-6.8,3.5c-1.4-0.3-3,0.2-4.4,0.5
				c-1,0.1-1.7,0.6-2.1,1.6c-0.2,0.5-0.3,1.3-1.1,1c-0.7-0.2-0.5-0.9-0.7-1.5c-0.2-0.9,0.9-3.1-5.4-0.3c0.5,3.7-0.2,7.6,0.3,11.2
				c0.6,4.1,0.8,8.6-0.6,12.1c-1.2,3-0.7,5.4-0.6,8c0.3,9.5-0.5,19,0.4,28.4c0.2,2.3,1.9,3.9,4,3.3c4-1.1,8.2-1.7,12.1-2.9
				c3.8-1.2,7.6-1.6,11.4-2.3c6.2-1.1,12.2,0.5,17.9,2.9c3.5,1.5,6.2,3.9,7.8,7.4c0.9,2,1.7,4,2.2,6.1c0.6,2.2,1.7,3.6,3.9,4.4
				c4.6,1.8,9,3.9,12.8,7.2c8.4,7.5,14,16.1,11.4,28c-0.8,3.5-2.6,5.2-6.2,5.2c-1.2,0-2.2,0.1-3.3,0.8c-3.6,2.3-7.4,1.1-9.4-2.7
				c-0.9-1.8-1-3.7-1.4-5.6c-0.5-3,1-5.7,3.8-6.9c1.5-0.6,3.1-1.1,4.7-1.6c2-0.6,2.4-1.6,1.3-3.5c-3.4-5.9-8.3-10.1-14.4-13
				c-1.7-0.8-2.6-0.7-3.7,0.9c-1.5,2.3-3.4,2.8-5.8,1.7c-1.2-0.5-1.9-0.3-2.9,0.5c-2.4,2.1-5.2,1.6-7.1-1c-0.8-1.1-1.3-2.3-1.6-3.6
				c-0.3-1.4-1.2-2.1-2.6-2.2c-8.9-0.9-17.9-1.9-26.8-2.8c-1.2-0.1-2.6-0.2-3.6,0.5c-2.6,1.8-5.5,2.7-8.5,3.3
				c-2,0.4-2.8,1.6-2.7,3.6c0.2,2.4-0.4,4.8-0.7,7.2c-0.9,6.7-2.1,13.3-2.4,20.1c-0.2,5.4-0.7,10.8-0.5,16.2
				c0.2,4.5-2.9,6.9-7.2,6.3c-1-0.2-1.8,0-2.5,0.7C91.6,373,90,373.3,88.9,374z M35.1,153.1c-0.1,0-0.2,0-0.3,0c0-2.6,0-5.2,0-7.7
				c0-0.7,0.2-1.8-0.6-2c-1.8-0.6-3.8-1-5.6-0.3c-1.6,0.7-1.5,2.4-1.2,4c0.3,2.3,0.6,4.6,0.5,7c-0.5,9.1-1.1,18.1-1.3,27.2
				c-0.1,3.3,0.3,6.6-0.8,9.9c-0.4,1.2-0.2,2.6-0.1,4c0,0.8,0.5,1.5,1.2,0.8c2.3-2.3,5.5-4.3,5.8-7.8
				C33.7,176.3,34.4,164.7,35.1,153.1z M177.8,145.1c0.1-4-0.2-4.4-4.1-4.3c-0.2,0-0.4,0-0.5,0c-2.4-1-2.5,0.4-2.5,2.3
				c0,12.8,0.7,25.6,1.6,38.4c0.3,4.3,0.9,8.4,4.6,11.3c0.6,0.5,1,1.6,2,1.2c0.8-0.3,0.3-1.3,0.4-2c0.2-1.9-0.4-3.8-0.4-5.7
				C179,172.4,177.3,158.8,177.8,145.1z M132.8,304.9c6.8,1.2,13.5,2.5,20.1,3.6c1.7,0.3,4.1,1.6,5.1,0.2c1.2-1.7-0.6-3.9-1.3-5.8
				c-0.1-0.4-0.4-0.7-0.7-1c-3.5-4.3-5.5-5.1-10-3.1c-2.9,1.3-5.8,3-9,3.5C135.3,302.5,133.9,303.3,132.8,304.9z M50.2,218.3
				c2.1,1.8,4.6,2.6,7.2,2.8c5.5,0.4,10.9,0.6,16.4,0.9c1,0,2.2,0.9,2.8,0.1c0.7-1.1-0.7-2-1.1-3.1c-0.6-1.5-2-1.3-3.2-1.3
				c-6.5,0-12.9-0.1-19.4-0.1C52.1,217.6,51.2,217.3,50.2,218.3z M154.3,218.1c-1-0.2-1.3-0.3-1.7-0.3c-6.6,0-13.2-0.1-19.7-0.1
				c-0.7,0-1.3,0-1.9,0.5c-1.4,1-1.9,3.5-0.8,3.7c1.8,0.3,3.9,0.8,5.6,0.3c3.8-1.2,7.7-1.1,11.6-1.5
				C149.7,220.4,152,219.9,154.3,218.1z M68.9,304c2.5-0.2,4.9-0.4,7.3-0.6c0.8-0.1,1.8,0,2-1.1c0.1-0.9-0.7-1.2-1.4-1.5
				c-2.1-1.1-4.3-2.2-6.5-3.2c-1-0.5-2.2-0.6-3.1,0.1c-1.5,1.3-2.7,3-2.3,5C65.5,304.8,67.6,303.8,68.9,304z"/>
		</g>
	</g>
</g>
</svg>
