<?xml version="1.0" encoding="utf-8"?>
<!-- Generator: Adobe Illustrator 26.5.3, SVG Export Plug-In . SVG Version: 6.00 Build 0)  -->
<svg version="1.1" baseProfile="tiny" id="Layer_1" xmlns="http://www.w3.org/2000/svg" xmlns:xlink="http://www.w3.org/1999/xlink"
	 x="0px" y="0px" viewBox="0 0 211.8 438" overflow="visible" xml:space="preserve">
<g id="QLgcbc.tif">
	<g>
		<g>
			<path fill="#FFFFFF" d="M200.6,438c-0.8-0.5-1.6-0.9-2.4-1.4c-0.8-0.6-1.2-1.6-0.5-2.4c1.4-1.4,0.7-2.7,0.2-4.1
				c-9.1-25.8-18.2-51.5-27.3-77.3c-7.9-22.2-15.7-44.5-23.5-66.7c-3.1-8.7-6.2-17.4-9.2-26.2c-0.7-2.2-1.8-3.2-4.3-3.6
				c-3.9-0.5-7.6-0.1-11.4,0.2c-13.4,0.9-26.8,1-40.1-0.9c-2.6-0.4-5.1,0.7-7.6,1.1c-1.2,0.2-1.4,1.8-1.8,2.9
				c-3.2,8.7-6.3,17.4-9.4,26.1c-12.5,34.5-24.9,68.9-37.4,103.4c-4.7,13-9.4,26-14,39c-0.5,1.3-0.9,2.6,0.1,4
				c1.1,1.5-0.1,2.4-1.4,2.7c-2.7,0.7-5.5,0.6-8.2,0c-1.8-0.4-2.2-2.1-0.7-3.1c1.9-1.3,2.7-3.1,3.4-5.1c4.8-13.3,9.6-26.6,14.5-39.9
				c0.6-1.7,0.5-2.5-1.4-3.1c-2.5-0.7-2.7-1.7-0.7-3.3c0.9-0.8,1.4-1.8,1.8-2.9C33.1,341,47,304.7,60.8,268.3
				c1.2-3.3,2.5-6.5,3.7-9.8c1.4-4,0.7-5.5-3.5-6.7c-3.8-1.1-7.7-2.2-11.4-3.6c-20.1-7.6-35.8-20.3-46.2-39.2
				c-4.2-7.6-4-15.7-2.1-23.8c2.6-11.4,7-22.2,11.8-32.9C26.4,123,40,93.7,54.6,64.9c8.1-16,16.1-32.2,26.1-47.2
				c2.7-4.1,5.8-7.9,9.6-11.1c11.8-9.8,27.1-8.5,37.7,3.2c5.6,6.1,9.8,13.3,13.7,20.5c13.5,24.7,25.6,50.1,37.2,75.8
				c6.7,14.8,13.6,29.5,20,44.4c5.3,12.4,10.6,24.9,12.5,38.4c1.1,7.5-0.2,14.4-4.1,21.1c-12.5,21.9-31.7,34.5-55.4,41.3
				c-0.3,0.1-0.6,0.2-1,0.2c-4.8,1.4-5.1,2.1-3.4,6.8c9.9,27.6,19.9,55.2,29.8,82.8c4.3,12.1,8.7,24.1,13.1,36.2
				c0.5,1.5,1,2.9,2.3,4c1.7,1.4,1.5,2.6-0.7,3.1c-2.4,0.5-2.4,1.6-1.7,3.5c5.2,14.3,10.2,28.7,15.4,43.1c0.3,1,0.9,1.7,1.7,2.4
				c2.3,2.1,2.1,2.9-0.9,4.1c-0.3,0.1-0.6,0.3-0.9,0.4C203.9,438,202.3,438,200.6,438z"/>
		</g>
	</g>
</g>
</svg>
