<?xml version="1.0" encoding="utf-8"?>
<!-- Generator: Adobe Illustrator 26.5.3, SVG Export Plug-In . SVG Version: 6.00 Build 0)  -->
<svg version="1.1" baseProfile="tiny" id="Layer_1" xmlns="http://www.w3.org/2000/svg" xmlns:xlink="http://www.w3.org/1999/xlink"
	 x="0px" y="0px" viewBox="0 0 612 792" overflow="visible" xml:space="preserve">
<g id="Layer_2_00000153680135033302800380000003822528396772095152_">
</g>
<g id="Layer_1_00000124145753669796068470000014192730910861856672_">
	<path stroke="#000000" stroke-width="10" stroke-miterlimit="10" d="M335,289"/>
	<g id="bwMIIL.tif">
		<g>
			<path fill="#FFFFFF" d="M515.6,381.1c0,12.6,0,25.2,0,37.7c0,3.7,0.8,7.4,0.1,11.2c-0.6,3.2-0.9,3.6-4.2,3.6
				c-24.3,0-48.7,0-73-0.1c-3.9,0-3.9,0-3.9,3.8c0,7.5,0.1,15,0.6,22.5c0.2,2.9-0.8,5.7-0.3,8.7c0.2,1.4-1.2,2.1-2.5,2.3
				c-2.4,0.4-4.8,0.3-7.2-0.1c-1.9-0.3-2-1.8-2.3-3.4c-0.6-4.7-0.1-9.5-0.1-14.2c0-5.5,0-11,0.1-16.5c0-2.3-1-3.1-3.2-3.1
				c-2.3-0.1-2.5,1.4-2.5,3.1c0,3.2-0.1,6.3,0,9.5c0,2.1-1.1,3.2-3.1,3.6c-1.8,0.3-3.5-0.1-5.2-0.6c-1.4-0.5-1.6-1.8-1.6-3.1
				c0-2.9,0-5.8,0-8.7c0-3.5-0.2-3.6-3.6-3.8c-10.4-0.8-20.8-0.6-31.2-0.2c-9.9,0.3-19.8,0.6-29.7,0.2c-11-0.4-22-0.3-33-0.3
				c-13.1,0-26.1,0.8-39.2,0.4c-31.8-1-63.6-0.3-95.5-0.5c-4.2,0-4.1,0-4.6,4.2c-0.3,2.8-0.2,5.7,0.1,8.5c0.2,2.6-1.1,3.8-3.4,4
				c-6.1,0.6-7.4-1.3-6.5-6.2c0.5-2.9-0.3-5.6-0.3-8.4c0-1.6-1.4-1.6-2.6-1.6c-1.4,0-2.2,0.5-2.3,2c-0.1,3.2-0.3,6.5-0.3,9.7
				c0,7.4,0.1,14.8,0.2,22.2c0,1.4-0.6,2.2-1.7,2.7c-0.6,0.3-1.3,0.5-1.9,0.5c-8.4,0-7.8,0.4-7.8-7.4c0-9.1-0.1-18.2-0.1-27.2
				c0-2.5-1.4-3-3.5-3c-21.3,0-42.7,0-64,0.1c-3.2,0-6.5,0-9.7,0c-3,0-3.5-0.6-3.6-3.5c-0.8-21.6-0.4-43.3-0.6-65
				c0-6.5-0.5-13-0.4-19.4c0.1-8.9,0.8-8.6,8-10.2c0.2-0.1,0.5-0.1,0.7-0.2c4.9-0.5,8.5-2,8.8-8.1c0.3-5.5,5.2-6.5,9.7-7.1
				c2.9-0.4,5.7-1.2,8.7-1.1c2.2,0,2.2-1.7,2.4-3.2c0.2-2.7,0-5.3,0.5-8c0.7-4.2,1.9-5.3,6.1-5.4c7.2-0.1,14.5,0,21.7,0.2
				c6.8,0.2,13.6-0.4,20.4,0c8.3,0.5,16.6-0.2,24.9,0.1c8.1,0.2,16.2,0.1,24.4-0.1c5.7-0.1,11.5,0.3,17.2,0.1c21-0.5,42-0.3,63-0.3
				c3,0,6.2-0.7,9,1.2c0.3,0.2,0.9,0.2,1.2,0c2.3-1.7,5-1.2,7.5-1.2c25.1,0,50.2,0,75.2,0.1c9.1,0,18.3,0.7,27.4,0.2
				c8.7-0.4,17.3,0.3,25.9,0c8.2-0.3,16.4,0.3,24.6,0c5.1-0.2,10.2-0.4,15.2-0.3c9.6,0.2,10.4,1.4,12,11c1.1,6.5,0.7,6.5,7.2,7.1
				c3.1,0.3,6.3,0.4,9.4,1.1c2.3,0.5,3.7,1.8,4.5,3.8c0.8,1.9,1.3,3.9,1.5,6c0.2,1.7,1,2.7,2.8,3c2.9,0.5,5.7,1.2,8.5,1.8
				c4.3,0.9,5,1.8,5,6.3C515.6,355.1,515.6,368.1,515.6,381.1z"/>
		</g>
	</g>
</g>
</svg>
