<?xml version="1.0" encoding="utf-8"?>
<!-- Generator: Adobe Illustrator 26.5.3, SVG Export Plug-In . SVG Version: 6.00 Build 0)  -->
<svg version="1.1" baseProfile="tiny" id="Layer_1" xmlns="http://www.w3.org/2000/svg" xmlns:xlink="http://www.w3.org/1999/xlink"
	 x="0px" y="0px" viewBox="0 0 454.2 160.9" overflow="visible" xml:space="preserve">
<g id="cCpOQ8.tif">
	<g>
		<g>
			<path fill="#FFFFFF" d="M227.4,0.2c33.5,0,67.1,0,100.6,0c25,0,49.9,0.1,74.9-0.1c4.1,0,7.9,0.7,11.7,2.1
				c11.3,4,22.7,7.8,34,11.7c1.4,0.5,2.8,0.8,4.1,1.4c2.6,1.1,0.9,3.4,1.1,5.1c0.2,1.4-1.1,1.4-2.1,1.4c-13.6,0-27.2,0-40.7,0
				c-11.7,0-23.4,0-35.1,0c-0.4,0-0.8,0-1.2,0c-0.4,0-0.9-0.1-1.1,0.3c-0.2,0.6,0.4,0.7,0.8,0.9c0.4,0.2,0.8,0.5,1.2,0.6
				c1.5,0.7,2,1.7,1.8,3.4c-0.3,3.4,0,6.8-0.2,10.2c-0.5,10.6-0.7,21.2-1,31.7c-0.2,7.1-0.5,14.2-0.8,21.3
				c-0.3,8.3-0.3,16.6-0.7,24.9c-0.4,8.1-0.4,16.2-0.9,24.3c-0.4,6.6-0.2,13.2-0.7,19.9c-0.1,1.2-0.5,1.7-1.7,1.6
				c-4.4,0-8.8,0-13.2,0c-1.2,0-2-0.5-2.6-1.6c-3.2-5.7-6.4-11.4-9.6-17c-2.6-4.5-5.2-9-7.7-13.6c-1.2-2.3-2.6-4.6-4-6.8
				c-1-1.7-1.5-3.4-1.4-5.3c0.5-9,0.4-18,0.7-27c0.2-9.1,0.3-18.1,0.6-27.2c0.2-6.3,0.1-12.7,0.6-19c0.4-5.1-0.1-10.2,0.5-15.3
				c0.2-1.7-0.2-3.3-0.1-5c0.1-1.3-0.7-1.5-1.8-1.5c-5.2,0-10.4,0-15.6,0c-31.5,0-62.9,0-94.4,0c-33.8,0-67.6,0-101.4,0
				c-2.1,0-2.1,0-2.1,2.1c-0.2,6.5,0.1,13.1,0.3,19.6c0.3,9.5,0.5,19.1,0.6,28.6c0.1,7.9,0.2,15.7,0.6,23.6
				c0.3,6.6,0.3,13.2,0.6,19.7c0.1,3.2-0.8,5.8-2.4,8.5c-6.6,10.9-13,21.8-19.5,32.8c-0.3,0.6-0.8,1-1,1.6c-0.8,2.5-2.5,2.9-4.8,2.8
				c-3.8-0.2-7.6-0.1-11.4,0c-1.4,0-2-0.5-2-1.9c-0.1-4.1-0.1-8.2-0.3-12.3c-0.6-11.4-0.7-22.8-1.1-34.2c-0.1-4.1-0.4-8.3-0.5-12.4
				c-0.3-10.4-0.6-20.9-1.2-31.3c-0.2-4.1-0.1-8.1-0.2-12.2c-0.4-10-0.7-20.1-1.1-30.1c-0.1-1.7,0.8-2.4,2.1-3.2
				c0.6-0.3,1.9-0.5,1.6-1.4c-0.2-0.7-1.3-0.3-2-0.3c-25.2,0-50.3-0.1-75.5-0.1c-0.3,0-0.7,0-1,0C0.4,21.6-0.1,21,0,19.7
				c0.1-1.2-0.2-2.6,0.1-3.7c0.4-1.4,2.1-1,3.2-1.4c7.5-2.9,15.2-5.4,22.9-7.9c6.3-2,12.5-4.2,18.7-6.4C45.8,0,46.6,0,47.5,0
				C63,0,78.5,0,94,0C138.4,0.2,182.9,0.2,227.4,0.2L227.4,0.2z M96.9,115.4c0,3.9-0.1,7.7,0.3,11.6c0.1,0.8-0.1,1.9,0.8,2.2
				c1,0.4,1.3-0.8,1.9-1.3c0.3-0.2,0.5-0.6,0.7-0.9c1.7-2.5,3.2-5.1,5.1-7.5c0.8-1,1.7-2.1,1.7-3.5c0.1-6,0.2-12.1,0-18.1
				c-0.2-4-0.3-8-0.6-12c-0.4-7-0.5-13.9-0.6-20.9c-0.1-13.6-0.8-27.1-1.2-40.6c0-1.3-0.3-1.5-1.5-0.8c-1.9,1.2-3.6,2.6-5.6,3.7
				c-2.7,1.5-3.7,3.7-3.6,6.7c0.4,9.1,0.4,18.2,0.8,27.3c0.4,9.3,0.6,18.7,0.9,28C96.5,98,96.7,106.7,96.9,115.4z M348.4,63.2
				c0,2.2-0.1,4.8-0.1,7.3c0,5.7-0.5,11.5-0.5,17.2c-0.1,8.7-0.8,17.5-0.8,26.2c0,1.4,0.4,2.7,1.1,3.9c2.2,3.8,4.7,7.3,7.2,10.9
				c0.2,0.3,0.4,1,0.9,0.8c0.6-0.2,0.4-0.8,0.5-1.3c0.6-4.4,0.3-8.9,0.5-13.3c0.3-7.6,0.2-15.1,0.5-22.7c0.4-13.6,1.1-27.2,1.1-40.8
				c0-0.6,0-1.3,0.1-1.9c0.5-5.8,0.5-11.7,0.4-17.5c0-1.5-0.4-2.9-1.7-3.8c-2.1-1.5-4.3-3.1-6.4-4.5c-1.4-0.9-1.7-0.7-1.8,0.9
				c-0.1,2.5-0.2,5-0.2,7.6C349.1,42.5,348.3,52.7,348.4,63.2z"/>
		</g>
	</g>
</g>
</svg>
