<?xml version="1.0" encoding="utf-8"?>
<!-- Generator: Adobe Illustrator 26.5.3, SVG Export Plug-In . SVG Version: 6.00 Build 0)  -->
<svg version="1.1" baseProfile="tiny" id="Layer_1" xmlns="http://www.w3.org/2000/svg" xmlns:xlink="http://www.w3.org/1999/xlink"
	 x="0px" y="0px" viewBox="0 0 265.8 488.7" overflow="visible" xml:space="preserve">
<g id="Tj1F54.tif">
	<g>
		<path fill="#FFFFFF" d="M89.3,131.7c0.5-6.2-2.4-11-6.9-14.8c-9.3-8-19-15.4-28.7-22.9S33.8,79.7,24.4,71.8
			c-2.9-2.4-5.6-5-8.1-7.8c-4.5-5.1-5.4-11.1-2.9-17.3c6.1-15.3,14-29.6,25.1-41.8C43,0,49.2-0.7,55.4,0.6C62.9,2.2,70,5.3,77.3,7.7
			c13.2,4.4,26.4,8.7,39.9,12.1c7.1,1.8,14.3,3.4,21.6,4.1c2.8,0.3,5.6-0.4,8.4-0.9c22.6-4.2,44.4-11.2,66-18.9
			c4.2-1.5,8.5-2.8,13.1-3.1c6.3-0.5,11.3,1.9,14.9,6.9c9.3,12.6,16.7,26.3,21.8,41.1c2.1,6.2,0.5,11.7-3.8,16.5
			c-5.6,6.3-12.5,11.2-19.3,16.1c-16,11.6-31.7,23.5-46.8,36.2c-5.7,4.8-8,11-6.8,18.5c2.2,14.7,4,29.5,6.2,44.2
			c0.9,6.1,2.2,12.1,4.3,18c0.4,1,0.9,2,1.5,2.8c2,2.7,4.5,4.1,8.1,3.7c7.5-0.8,14.9-1.9,22.2-3.4c1.2-0.3,2.3-0.9,3.4-1.5
			c7.9-4.4,16.2-7.7,24.9-10.2c0.3-0.1,0.7-0.3,1-0.2c1.7,0.2,3.9-1.6,5,1.1c1.1,2.8,0.2,6.3-2.1,7.6c-2.3,1.3-4.7,2.4-7.2,3.5
			c-9.8,4.4-19.7,8.6-29.9,12c-0.6,0.2-1.3,0.4-1.9,0.7c-0.6,0.3-1.4,0.4-1.5,1.2c-0.1,1,0.9,1.1,1.5,1.4
			c14.3,6.3,21.2,18.1,24,32.8c1.6,8.6,1.7,17.4,2.6,26.1c1,10.2,1.9,20.4,2.7,30.6c0.8,9.9,1.5,19.7,2.3,29.6
			c0.8,10.5,1.7,21.1,2.6,31.6c0.7,8.7,1.5,17.4,2.3,26.1c1,10.5,1.6,21.1,2.8,31.6c0.9,8.5,1.5,17.1,2.2,25.6
			c0.8,9.5,1.6,18.9,2.3,28.4c0.2,2.1,0.1,4.2,0.2,6.2c0,2.1-1,3.1-3.1,2.9c-3.6-0.3-7.1-0.7-10.7-1c-1.5-0.1-2.1-1.1-2.5-2.4
			c-1-3.4-1.1-6.9-1.4-10.4c-1.3-12.2-2.6-24.5-3.8-36.8c-0.2-2.3-1.1-3.6-3.5-4.2c-2.9-0.7-3.3-3.3-3.7-5.7
			c-2.2-14.2-4.3-28.5-6.5-42.7c-2.9-18.8-6-37.7-8.9-56.5c-3.1-20.1-6.1-40.2-9.2-60.2c-1.2-7.7-2.3-15.3-4-22.9
			c-0.7-3.1-1.9-6-4.1-8.4c-1.4-1.5-3-2-4.9-1.7c-18,3-36.2,3.7-54.4,4.8c-9.9,0.6-19.8-0.2-29.7-0.6c-15.9-0.7-31.6-3.1-47.4-4.9
			c-1.6-0.2-2.7,0.3-3.7,1.5c-2.5,3.1-3.8,6.7-4.3,10.5c-2.5,16-5.2,31.9-7.9,47.8c-3.4,20.4-6.6,40.9-9.9,61.4
			c-2.5,15.4-5.1,30.7-7.6,46.1c-1.3,7.9-2.6,15.8-3.9,23.7c-0.7,4.2-1.4,5-5.5,5.9c-1.8,0.4-2.7,1.3-2.9,3.1
			c-1.5,14.4-3,28.8-4.6,43.2c0,0.4-0.1,0.8-0.2,1.2c-1.1,6.6-1.5,7-8.2,7.3c-1.9,0.1-3.8,0.3-5.7,0.5c-2.2,0.3-3.1-0.8-3.4-2.9
			c-0.5-3.4,0.3-6.8,0.5-10.2c0.8-10.3,1.9-20.5,2.8-30.8c1.1-11.2,2.2-22.4,3.2-33.5c1-10.8,1.9-21.6,2.8-32.3
			c0.9-9.9,1.9-19.9,2.8-29.8c0.9-10,1.7-20.1,2.7-30.1c1.2-13.6,2.5-27.2,3.8-40.8c0.7-7.9,1.3-15.8,2.3-23.6
			c1.3-9.9,4.3-19.1,11-26.9c3.7-4.4,8.4-7.2,13.6-9.5c0.7-0.3,1.9-0.3,1.9-1.3s-1.1-1.1-1.9-1.4c-8.8-3-17.3-6.5-25.6-10.7
			c-3.6-1.8-7.1-3.7-10.2-6.2c-2.7-2.2-3.4-5-2-8c0.7-1.6,2.1-1.3,3.4-1.2c8.4,0.6,15.9,4.1,23.5,7.4c7,3,13.4,7.5,21.3,8.1
			c4.1,0.3,8.1,0.8,12.2,1.3c1.7,0.2,3-0.5,4.3-1.6c3.4-2.8,5.3-6.5,6.4-10.7c3.4-13.2,5.4-26.6,7.5-40
			C87.6,145.4,88.9,138.6,89.3,131.7z"/>
	</g>
</g>
</svg>
