<svg width="278" height="123" viewBox="0 0 278 123" fill="none" xmlns="http://www.w3.org/2000/svg">
<path d="M277.116 35.0213H249.789V0.137451H23.56V35.0213H0.884322C0.884322 35.0213 -0.648534 83.3829 13.0415 94.1123C13.8872 94.7994 19.2258 95.2751 27.26 95.5922L21.4986 118.742C21.0758 120.434 22.08 122.125 23.7715 122.548C25.4629 122.971 27.1543 121.967 27.5772 120.275L33.3386 97.0722C33.4443 96.6493 33.4443 96.2794 33.3915 95.8565C34.0786 95.8565 34.8186 95.9094 35.5058 95.9094L32.5458 107.907C32.1229 109.599 33.1272 111.29 34.8186 111.713C36.51 112.136 38.2015 111.131 38.6243 109.44L41.9543 96.1208C75.4658 96.8079 127.53 96.3322 139.053 96.2265C150.259 96.3322 199.733 96.8079 233.244 96.1736L236.521 109.44C236.944 111.131 238.636 112.136 240.327 111.713C242.019 111.29 243.023 109.599 242.6 107.907L239.64 96.0151C240.909 95.9622 242.177 95.9622 243.393 95.9094C243.34 96.2794 243.34 96.6493 243.446 97.0722L249.207 120.275C249.63 121.967 251.321 122.971 253.013 122.548C254.704 122.125 255.709 120.434 255.286 118.742L249.524 95.6451C258.246 95.2751 264.06 94.7994 264.959 94.1123C278.649 83.3829 277.116 35.0213 277.116 35.0213ZM224.681 18.8479C226.637 18.8479 228.223 20.4335 228.223 22.3891C228.223 24.3447 226.637 25.9303 224.681 25.9303C222.726 25.9303 221.14 24.3447 221.14 22.3891C221.14 20.4335 222.726 18.8479 224.681 18.8479ZM181.709 18.8479C183.664 18.8479 185.25 20.4335 185.25 22.3891C185.25 24.3447 183.664 25.9303 181.709 25.9303C179.753 25.9303 178.167 24.3447 178.167 22.3891C178.167 20.4335 179.753 18.8479 181.709 18.8479ZM95.8686 18.8479C97.8243 18.8479 99.41 20.4335 99.41 22.3891C99.41 24.3447 97.8243 25.9303 95.8686 25.9303C93.9129 25.9303 92.3272 24.3447 92.3272 22.3891C92.3272 20.4335 93.9129 18.8479 95.8686 18.8479ZM52.9486 18.8479C54.9043 18.8479 56.49 20.4335 56.49 22.3891C56.49 24.3447 54.9043 25.9303 52.9486 25.9303C50.9929 25.9303 49.4072 24.3447 49.4072 22.3891C49.4072 20.4335 50.9929 18.8479 52.9486 18.8479ZM128.799 72.125H35.3472C31.6472 72.125 28.6343 68.2666 28.6343 63.5626C28.6343 58.8057 31.6472 55.0002 35.3472 55.0002H128.799C132.499 55.0002 135.511 58.8585 135.511 63.5626C135.511 68.2666 132.499 72.125 128.799 72.125ZM138.789 25.9303C136.833 25.9303 135.247 24.3447 135.247 22.3891C135.247 20.4335 136.833 18.8479 138.789 18.8479C140.744 18.8479 142.33 20.4335 142.33 22.3891C142.33 24.3447 140.744 25.9303 138.789 25.9303ZM242.653 72.125H149.201C145.501 72.125 142.489 68.2666 142.489 63.5626C142.489 58.8057 145.501 55.0002 149.201 55.0002H242.653C246.353 55.0002 249.366 58.8585 249.366 63.5626C249.366 68.2666 246.353 72.125 242.653 72.125Z" fill="#FCFDF8"/>
</svg>
