<svg width="123" height="174" viewBox="0 0 123 174" fill="none" xmlns="http://www.w3.org/2000/svg">
<path d="M115.947 64.3178C112.551 64.3178 109.301 65.6009 106.891 67.855C104.481 70.1438 103.166 73.2301 103.166 76.4552V91.6443H64.8223V70.4212H77.6036C85.1993 70.4212 92.5028 67.5776 97.8709 62.4799C103.276 57.3822 106.307 50.4812 106.343 43.2681V36.6446C106.489 35.1188 106.489 33.5582 106.343 32.0324L104.919 23.779C103.787 17.3982 100.318 11.6069 95.1321 7.44552C89.9466 3.24946 83.3369 0.960693 76.5445 0.960693H46.8556C40.0633 0.960693 33.4536 3.24946 28.2681 7.44552C23.0825 11.6069 19.6134 17.4329 18.4813 23.779L17.0571 32.0324C16.8015 33.5582 16.6554 35.0841 16.6554 36.6446V43.1988C16.6554 50.4465 19.6864 57.3822 25.091 62.5145C30.4956 67.6469 37.7992 70.5252 45.4314 70.5252H58.4317V91.783H20.0881V76.4552C20.0881 73.2301 18.7369 70.1438 16.3633 67.855C13.9531 65.5662 10.703 64.3178 7.30687 64.3178H0.91626V70.3865H7.30687C8.98669 70.3865 10.63 71.0107 11.8351 72.1551C13.0402 73.2995 13.6975 74.8253 13.6975 76.4552V92.4765C11.7255 93.5516 10.5204 95.5282 10.4839 97.713V100.765C10.4839 103.99 11.8351 107.076 14.2087 109.365C16.6189 111.654 19.869 112.902 23.2651 112.902H58.3952V143.245H26.4422C23.046 143.245 19.7959 144.529 17.3858 146.783C14.9756 149.071 13.661 152.158 13.661 155.383V155.938C10.8126 156.909 8.58499 159.093 7.67205 161.868C6.79562 164.642 7.30687 167.624 9.13276 169.948C10.9586 172.271 13.807 173.624 16.838 173.624C19.869 173.624 22.7539 172.271 24.5433 169.948C26.3326 167.624 26.8804 164.642 26.004 161.868C25.1275 159.093 22.9 156.909 20.0151 155.938V155.383C20.0151 153.788 20.6724 152.227 21.8775 151.083C23.0825 149.938 24.6893 149.314 26.4057 149.314H58.3587V155.938C55.5103 156.909 53.2827 159.093 52.3698 161.868C51.4934 164.642 52.0046 167.624 53.8305 169.948C55.6564 172.271 58.5048 173.624 61.5358 173.624C64.5667 173.624 67.4516 172.271 69.241 169.948C71.0304 167.624 71.5781 164.642 70.7017 161.868C69.8253 159.093 67.5977 156.909 64.7128 155.938V149.314H96.6658C98.3457 149.314 99.989 149.938 101.194 151.083C102.399 152.227 103.056 153.753 103.056 155.383V155.938C100.208 156.909 97.9805 159.093 97.0675 161.868C96.1911 164.642 96.7024 167.624 98.5283 169.948C100.354 172.271 103.203 173.624 106.234 173.624C109.264 173.624 112.149 172.271 113.939 169.948C115.728 167.624 116.276 164.642 115.399 161.868C114.523 159.093 112.295 156.909 109.411 155.938V155.383C109.411 152.158 108.059 149.071 105.686 146.783C103.276 144.494 100.025 143.245 96.6293 143.245H64.6763V112.902H99.9524C103.349 112.902 106.599 111.619 109.009 109.365C111.419 107.076 112.734 103.99 112.734 100.765V97.6783C112.734 95.5282 111.492 93.5516 109.52 92.4419V76.4205C109.52 74.8253 110.177 73.2648 111.382 72.1204C112.588 70.976 114.194 70.3518 115.911 70.3518H122.301V64.2831L115.947 64.3178Z" fill="#FCFDF8"/>
</svg>
