<svg width="136" height="187" viewBox="0 0 136 187" fill="none" xmlns="http://www.w3.org/2000/svg">
<path d="M135.366 77.6594C135.366 69.8399 109.672 77.2928 80.6435 79.3292V61.4502H103.268C108.422 61.4502 112.401 55.9929 111.681 49.8432L107.057 9.27955C106.489 4.22946 102.889 0.441895 98.6443 0.441895H36.7595C32.5151 0.441895 28.9149 4.18874 28.3465 9.27955L23.6852 49.8432C23.0031 55.9929 26.9443 61.4502 32.0982 61.4502H54.7224V79.3292C25.6937 77.2928 0 69.8399 0 77.6594C0 88.289 10.6489 97.7376 27.1338 103.643L9.62568 181.308C9.17092 183.345 10.3457 185.422 12.2405 185.951L13.9459 186.399C15.8407 186.888 17.7734 185.625 18.2661 183.589L35.6984 106.29C36.8732 106.575 38.048 106.86 39.2606 107.145L26.338 164.529C25.8832 166.565 27.058 168.642 28.9528 169.172L30.6582 169.62C32.553 170.109 34.4857 168.846 34.9784 166.81L48.0526 108.774C54.2676 109.67 60.8616 110.159 67.7208 110.159C74.6938 110.159 81.4014 109.67 87.768 108.734L100.88 166.81C101.335 168.846 103.268 170.149 105.2 169.62L106.906 169.172C108.8 168.683 110.013 166.606 109.521 164.529L96.4842 107.064C97.5832 106.82 98.6064 106.575 99.6675 106.29L117.1 183.589C117.555 185.625 119.487 186.929 121.42 186.399L123.125 185.951C125.02 185.462 126.233 183.385 125.74 181.308L108.232 103.684C124.717 97.7376 135.366 88.289 135.366 77.6594Z" fill="#FCFDF8"/>
</svg>
