<?xml version="1.0" encoding="utf-8"?>
<!-- Generator: Adobe Illustrator 26.5.3, SVG Export Plug-In . SVG Version: 6.00 Build 0)  -->
<svg version="1.1" baseProfile="tiny" id="Layer_1" xmlns="http://www.w3.org/2000/svg" xmlns:xlink="http://www.w3.org/1999/xlink"
	 x="0px" y="0px" viewBox="0 0 612 792" overflow="visible" xml:space="preserve">
<g id="Layer_2_00000052795370118989370250000010575907190808824222_">
</g>
<g id="Layer_1_00000011024591245052752090000005281154331957650068_">
	<path stroke="#000000" stroke-width="10" stroke-miterlimit="10" d="M335,289"/>
	<g id="uEpa40.tif">
		<g>
			<g>
				<path fill="#FFFFFF" d="M233.4,357.3c-16.9-1.5-33.8-2-50.7-2c-14.6-0.1-28.9-2.2-42.5-7.5c-8.8-3.4-16.9-7.9-23.5-14.8
					c-8.9-9.4-8.7-18.6,0.9-27.3c6.9-6.3,15-10.4,23.8-13.4c3.8-1.3,5.3-2.7,2.9-6.7c-4.6-7.6-5.4-16.3-6-25
					c-1.2-17.1-2.3-34.2-3.4-51.3c-0.4-6.5-1-12.9-1.5-19.4c-0.3-3.8-2.3-5.2-6-4.9c-2.7,0.2-5.4-0.2-8,0.3
					c-9.6,1.8-17.8-3.3-26.5-5.5c-3.2-0.8-4.3-4.9-2.3-7.8c3.3-4.7,7-8.7,13.2-9.7c9.1-1.4,18.2-2.5,27.3-2.3
					c8.2,0.2,13.6,6.4,11.6,14.4c-1.8,7.4-0.5,14.6-0.1,21.8c1.3,23.9,3.1,47.8,4.9,71.7c0.2,3.1,1.2,6.2,2.3,9.2
					c3.9,10.3,5.3,10.9,16.1,9.4c6.1-0.9,12.3-1.3,18.4-1.5c34-1.5,68-1,102-0.8c9.9,0.1,9.9,0,9.9-9.7c-0.1-18.2-0.3-36.3-0.3-54.5
					c0-4.1-1.3-5.7-5.5-5.5c-20.7,0.7-41.3-0.6-61.9-1c-13.8-0.3-27.6-1.5-40.9-6c-13.1-4.4-19.1-12.5-19.8-26.3
					c-0.5-8.6,0.6-16.9,2.9-25.2c7.1-25.5,14-51.1,22.2-76.3c0.7-2.2,1.7-4.3,2.6-6.5c6.6-17,19.4-24.4,37.4-24.4
					c16.9,0,33.6,1.9,50.4,2.8c13.3,0.8,26.6-0.4,39.9-1.1c15.1-0.9,30-3.4,45.3-1.9c15.2,1.5,25.4,8.9,31.2,22.8
					c6.6,16.1,10.6,33,15.6,49.5c4.2,14.2,8.9,28.3,11.7,42.9c0.7,3.7,1.1,7.6,1.3,11.4c0.8,18.8-8.4,30-27.4,34.1
					c-11.6,2.5-23.4,3.6-35.2,3.9c-18.6,0.4-37.3,1.9-55.9,1.1c-4.8-0.2-6.3,1.5-6.3,6.3c0.3,19.3,0,38.6,0.8,58
					c0.2,4.5,1.9,5.7,6,5.6c23-0.5,46-0.9,69-1.1c19.1-0.2,38.3-0.1,57.3,2.7c9.1,1.4,9.7,1.4,13.8-7c2.2-4.6,3.6-9.4,3.5-14.4
					c-0.1-26,0.3-52,1-78c0.1-3.4-0.2-6.6-1.7-9.7c-1.5-3.2-1.6-6.8-1.3-10.3c0.5-6.1,4.6-10.3,10.7-10.4c9-0.2,18-0.3,26.9,1.3
					c3.1,0.5,6.1,1.1,7.9,4.5c4,7.6,2.6,10.7-5.8,11.7c-1,0.1-2.5-0.1-2.9,0.5c-5.1,7.5-13.2,3.9-19.9,5.1c-4,0.7-5.3,2.3-5.3,6.1
					c-0.3,25.3-0.7,50.6-1,76c-0.1,9.7-2,18.9-7.4,27.1c-2.1,3.2-1.5,4.8,1.6,6.7c6.7,3.9,10.9,10.2,14.4,16.9
					c2.8,5.4,1.2,10.8-1.9,15.6c-8.1,12.8-21.1,18.4-34.7,22.8c-14.2,4.6-29,5.6-43.9,6c-12,0.3-24,0.1-36,0.3
					c-14,0.2-28,0.6-42,0.8c-3.8,0-5.4,1.3-5.4,5.2c0.1,22.2,0.1,44.3,0.1,66.5c0,1.5-0.4,3.3,0.8,4.3c4.5,4,3.9,9.3,4,14.4
					c0,11.3,0.2,22.7,0,34c-0.1,4.3,1.4,6.7,5.3,8.5c24.2,11.1,48.4,22.4,72.6,33.5c5.6,2.6,11.2,5.1,16.8,7.7
					c7,3.2,12.9,7.6,15.9,15.1c0.9,2.2,2.9,3.2,4.8,4.2c18.6,10,37.3,20,55.9,30c2.3,1.3,4.6,2.7,6.9,4c16,9,23.7,22.8,24,40.9
					c0.1,4,0.5,8.1-0.1,12c-0.6,4,1.1,4.7,4.3,4.4c7-0.7,13.9-1.4,20.8,0.9c7.5,2.4,14.3,11.7,13.6,19.6c-0.1,1.3-0.3,3.1-1.2,3.7
					c-4.4,3.3-6.1,8.7-10.2,12.1c-4.4,3.7-9.8,2.6-14.8,1.6c-3.3-0.6-6.5-2.4-8.4-5.1c-3.3-4.8-7.2-8.4-13-10
					c-2.7-0.8-3.9-3.2-3.8-6.3c0.4-9.1,0.1-18.2-0.8-27.3c-0.5-4.3-3.1-4.7-6-5.2c-14.6-2.5-29.2-4.9-43.8-7.4
					c-35.7-6.1-71.4-12.3-107.2-18.4c-8.7-1.5-17.4-3-26-4.5c-4-0.7-5.9,0.5-5.6,4.9c0.3,5.2-0.1,10.3,0,15.5
					c0.1,4.4-1.6,7.1-6.1,7.4c-3.8,0.3-4.8,2.3-5,5.9c-1.3,16.3-0.1,32.7-1.2,48.9c-0.3,3.6,1.3,4.6,4.6,4.6
					c6.1,0,12.3-0.3,18.4,1.3c10.4,2.8,16,10.7,16.2,21.8c0,1.6-0.6,2.9-1.8,3.9c-3,2.4-4.8,5.1-5,9.4c-0.1,2.8-3.8,4.2-6.7,5.1
					c-11.3,3.4-21-0.4-26.7-10.7c-1.4-2.6-3.6-3.4-5.9-4.1c-6.8-2.2-9.5-7.1-9.2-13.7c0.8-21.4,1.9-42.8,2.8-64.3
					c0.2-3.6,1-7.3-2-10.4c-1.1-1.1-0.8-2.8-0.8-4.3c0-5.3-0.3-10.7,0-16c0.3-4.5-1.4-6-5.8-5.3c-12.9,2.2-25.9,4.3-38.9,6.4
					c-3,0.5-5.9,1.2-8.9,1.4c-6.5,0.6-11.7,2.5-16,8.4c-3.8,5.2-11.2,4.1-15.6,1.5c-6.6-3.9-12.7-2.6-19.1-1.6
					c-26.4,4.2-52.8,8.6-79.2,12.9c-5.7,0.9-9.8,8.7-7.2,14c0.8,1.6,2.2,1.1,3.5,1c4.9-0.2,9.8-0.9,14.9,0c3.7,0.6,6.6,1.4,9.8,3.8
					c11.1,8.2,11.3,20.2,2.2,30.4c-5.4,6-10.8,6.3-17.2,5.6c-7-0.7-11.9-4.9-14.9-11.1c-1.1-2.2-3.2-2.7-5.2-3.6
					c-4.6-2.1-7.8-5.3-7.3-10.7c1.1-13.4-0.1-27,2-40.3c2.1-13.2,10.2-22.2,21.4-28.6c11.7-6.6,23.7-12.8,35.6-19.2
					c13.2-7.1,26.5-14.1,39.7-21.1c1-0.5,2.3-1.1,2.8-2c4.7-7.8,12.8-10.9,20.4-14.6c25.7-12.8,51.3-25.5,77-38.2
					c3.6-1.8,5.2-4,5.1-8.1c-0.3-12.5-0.1-25-0.2-37.5c0-3.6,0.2-7,2.9-9.8c1.4-1.4,1.3-3.3,1.4-5.2c0.2-22,0.4-44,0.8-66
					c0.1-4.6-1.4-6.4-6-6.1c-3.6,0.3-7.3,0.2-11-0.1c-4-0.3-5.5,1-5.6,5.3c-0.3,8,0.6,15.6,4.1,22.8c1.9,4,0.3,6-3.6,6.7
					c-1.6,0.3-3.3,0.4-5,0.4c-6.7-0.2-8.3-2.1-5.9-8.3c2.4-6.4,2.2-13.1,2.9-19.7c0.4-4.1-0.7-5.5-5.4-4.3
					c-20.8,5.1-41.8,9.8-62.7,14.7c-1.1,0.3-2.3,0.4-3.4,0.7c-2.3,0.4-3.4-0.6-3.9-2.7c-0.5-2.4,1.2-2.9,2.8-3.3
					c5.6-1.4,11.3-2.6,17-4.1C212.5,362.6,222.9,360,233.4,357.3z M312.2,544h0.1c0,11.2,0.1,22.3-0.1,33.5
					c-0.1,3.9,0.7,5.3,5.1,4.4c30-6,60-11.6,90-17.5c2-0.4,5-0.2,5.3-3.5c0.3-3-2-3.9-4.1-5c-9.9-5.4-19.9-10.8-29.8-16.2
					c-19.9-10.8-39.7-21.7-59.6-32.5c-6.2-3.3-6.9-2.8-6.9,4.3C312.2,522.4,312.2,533.2,312.2,544z M282.8,537.3c0-9,0-18,0-27
					c0-5.6-0.7-6-5.7-3.3c-16.6,8.8-33.2,17.6-49.8,26.5c-11.6,6.2-23.1,12.6-34.8,18.6c-3.7,1.9-3.3,5-3.3,8.1c0,3.3,2.7,3.5,4.8,4
					c4.5,1.1,9.1,2,13.6,2.9c23.1,4.8,46.2,9.6,69.3,14.3c6.3,1.3,6.8,1,6.5-5.2C283,563.3,282.9,550.3,282.8,537.3z M175.9,574.6
					c0-2.3,0.1-4.1,0-5.9c-0.4-4.9-2.5-6.1-7-3.8c-2.4,1.2-4.7,2.5-7,3.8c-18.9,10.2-38.3,19.6-56.7,30.7c-4.5,2.7-8,6.5-10,11.5
					c-2.2,5.6-0.8,7.7,5.1,6.8c24.5-3.9,49-7.9,73.5-11.9c3.5-0.6,4.8-2.2,3.2-5.5c-2.1-4.2-2.2-8.7-1.9-13.2
					C175.4,582.7,177.2,578.6,175.9,574.6z M419.5,605.3c-4.9-5-6.8-10.7-5.7-17.4c0.7-4.3,0.1-8.5-0.3-12.8
					c-0.5-4.7-2.7-5.4-6.6-4.7c-24.4,4.9-48.8,9.8-73.2,14.7c-2.3,0.5-5.9,0.1-5.9,3.2c0,3.2,3.8,2.6,6,3c19.1,3.5,38.2,6.9,57.3,10
					C400.4,603,409.6,605.3,419.5,605.3z M455.4,582.6c0.8,1.7,1.7,3.4,2.4,5.1c0.8,1.8,1.6,3.7,2.3,5.5c1.4,3.6,1.7,7-1.4,10.1
					c-5.2,5.2-4.4,8.2,2.7,9.7c11.9,2.4,23.8,4.3,35.8,6.4c2.4,0.4,3.3-0.4,2.9-3c-1.3-7.1-4.9-12.6-11-16.5
					c-9.9-6.4-20.5-11.6-30.9-17.1C457.4,582.4,456.7,581.9,455.4,582.6z M230.4,596.4c12.1-2,25.5-4.2,39-6.4
					c0.9-0.2,2.3-0.2,2.4-1.4c0.2-1.5-1.3-1.9-2.3-2.1c-5.8-1.3-11.7-2.5-17.6-3.7c-19.2-4-38.5-7.9-57.7-11.9
					c-2.6-0.5-4.7-0.6-4.9,2.9c-0.2,3.2,0.7,5.3,4.4,5c1.5-0.1,3-0.5,4.5-0.4c12.4,0.3,22,1.6,25.4,14.3
					C224.2,595.2,226,596.9,230.4,596.4z M436.5,578.8C436.5,578.8,436.5,578.7,436.5,578.8c2.8,0,5.6,0,8.4-0.1
					c0.8,0,1.8-0.2,1.8-1.2c0-0.5-0.6-1.1-1.2-1.4c-5.8-3.2-11.6-6.3-17.4-9.4c-1.8-1-2.6-0.4-2.8,1.7c-0.9,9.8-0.5,10.3,9.2,10.3
					C435.2,578.8,435.8,578.8,436.5,578.8z"/>
			</g>
		</g>
	</g>
</g>
</svg>
