<?xml version="1.0" encoding="utf-8"?>
<!-- Generator: Adobe Illustrator 26.5.3, SVG Export Plug-In . SVG Version: 6.00 Build 0)  -->
<svg version="1.1" baseProfile="tiny" id="Layer_1" xmlns="http://www.w3.org/2000/svg" xmlns:xlink="http://www.w3.org/1999/xlink"
	 x="0px" y="0px" viewBox="0 0 225.5 355.5" overflow="visible" xml:space="preserve">
<g id="_x38_Lbx3t.tif">
	<g>
		<g>
			<path fill="#FFFFFF" d="M225.5,98.6c0,3.3,0,6.7,0,10c-0.1,0.8-0.3,1.6-0.4,2.5c-0.7,8.4-1.4,16.7-2.2,25.1
				c-0.9,10-1.9,20-2.8,30.1c-0.5,4.8-1,9.6-1.5,14.4c-0.2,1.8-1.2,2.8-3,3.2c-2.9,0.7-6,0.7-8.9,0.8c-2.5,0.1-3.5,1.2-3.5,3.4
				c0,3.5-0.6,7-1.4,10.4c-1.1,4.8-2.8,6.4-7.7,7.3c-4.4,0.7-9,0.8-13.4,1c-12.5,0.6-25,0.6-37.5,0.6c-0.9,0-1.9-0.2-2.7,0.4
				c-1.9,1.6-4.2,1.4-6.4,1.4c-3.4,0.1-3.4,0.1-3.6,3.5c-0.1,2.9-0.8,3.6-3.6,3.6c-2.2,0.1-4.3,0.1-6.5,0s-3,0.8-2.9,3
				c0.1,7.5,0,15,0,22.5c0,0.9-0.1,1.9,0.6,2.6c1.3,1.3,1.4,3,1.3,4.7c-0.5,9-0.4,18-0.4,27c0,6.7,0,13.5,0,20.2c0,3.6,0.6,4,4,3.1
				c7.9-2,15.8-3.9,23.8-5.6c8.3-1.8,16.6-3.9,24.9-5.8c2.7-0.6,3.7,0,4.2,2.7c0.5,2.5,0.3,5.1,1,7.6c0.3,1-0.1,2.1-1.2,2.5
				c-3,1.1-5.9,2.7-9.3,2.3c-5.4-0.6-9.6,2.8-14.4,4.4c2.8,1.3,5.8,1.2,8.6,1.8c11.1,2.3,22.4,3.3,33.5,5.3
				c7.9,1.4,15.8,2.4,23.7,3.6c2.2,0.3,3.6,1.3,3.8,3.8c0.2,2.5,0.3,5,1,7.4c0.6,2.5-0.2,3.4-2.7,3.5c-3.8,0.2-7.6-0.4-11.4-0.7
				c-1.7-0.2-3.5-0.2-4.5-2.2c-0.2-0.3-0.8-0.5-1.3-0.6c-2.5-0.4-4.9-0.9-7.4-1c-4.9-0.1-9.7-0.9-14.6-1.2
				c-11.4-0.6-22.8-2.3-34.3-2.4c-0.8,0-1.7-0.1-2.5-0.3c-3.8-1-7.7-0.7-11.6-1.4s-8.1-0.2-12.2-0.2c-2.9,0-3.9,1.1-4,3.9
				c-0.1,2.8-0.1,5.7-0.1,8.5c0,5.7,0.1,11.3,0.1,17c0,1.3-0.3,2.3-1.6,2.8c-3.1,1.3-5.8-0.4-5.8-3.8c0-3.9,0.5-7.8,0.2-11.7
				c-0.3-4.4,0-8.8-0.5-13.2c-0.2-2-0.9-3.4-3.1-3.5c-4.4-0.1-8.8-0.2-13.2,0.3c-6,0.7-12,1.5-18.1,1.7s-12.1,0.6-18.2,1.2
				c-9.1,0.9-18.2,1.7-27.3,2.4c-3.1,0.2-6.8-0.5-9,3c-0.2,0.3-0.9,0.4-1.4,0.5c-4.5,0.6-8.9,1-13.4,1c-2.2,0-3.1-1.2-2.6-3.2
				c0.7-2.6,0.7-5.3,1.1-7.9c0.2-1.7,1-2.6,2.7-3.2c2.3-0.8,4.8-0.6,7.1-1.1c9.9-2.1,19.9-3,29.8-4.8c7.5-1.3,15.1-2.2,22.6-3.6
				c1.8-0.3,3.6-0.9,5.4-1.4c0-0.2,0.1-0.4,0.1-0.6c-1.5,0-2.5-1.2-3.8-1.6c-2.8-1-5.4-3-8.5-2.5c-3.4,0.6-6.2-0.6-9.2-1.6
				c-1.9-0.6-2.4-1.8-2.2-3.6c0.3-2.4,0.7-4.8,0.7-7.2c0.1-2.6,1.4-3.2,3.7-3.1c3,0.2,5.6,1.4,8.5,2c13.9,3.2,27.8,6.4,41.6,9.6
				c2.9,0.7,3.5,0.4,3.5-2.6c0.1-14.7,0-29.3,0.1-44c0-3-0.6-6.2,1.7-8.9c0.3-0.4,0.3-1.1,0.3-1.7c0-7.7,0-15.3,0.1-23
				c0-2.1-1-2.8-3-2.5c-2.5,0.4-5-0.1-7.5-0.1c-1.7,0-2.6-0.9-2.7-2.6c0-0.8,0-1.7,0-2.5c0-3.6-0.2-3.9-3.8-3.9
				c-15.1,0-30.2,0.2-45.2-0.6c-5.3-0.3-10.7,0-15.9-1.4c-2.9-0.8-4.7-2.6-5.4-5.6c-1-4-1.9-8-2-12.1c-0.1-2.2-1-2.9-3.1-2.9
				c-2.8-0.1-5.7-0.3-8.5-0.7c-3.3-0.5-3.9-1.3-4.1-4.6c-0.2-2.6-0.4-5.1-0.6-7.7c-1-10.6-1.9-21.2-2.9-31.8
				c-0.8-9-1.8-18.1-2.3-27.1c-0.3-5.7-0.9-11.5,0.6-17.1c0.9-3.1,2.7-4.9,6.1-5.4c5.3-0.8,9.8,1,14.1,3.9c0.9,0.6,1.7,1.6,1.6,2.7
				c-0.4,4.1,1.5,8,1.4,12.1c0,1.6,0.1,3.3,1.2,4.7c0.3-3.4,0.2-6.7,0.3-10c0.6-16.7,1.3-33.4,1.9-50.2c0.4-10.1,0.5-20.1,1.2-30.2
				c0.4-5.6,0.1-11.2,0.9-16.7c0.6-4,2.4-5.9,6.2-6.1c4.2-0.2,8.3-0.4,12.5-0.4c12-0.1,24-0.2,36-0.1c34.5,0.2,69-0.6,103.5,0.5
				c5.4,0.2,6.6,1.4,7.1,6.8c0.1,0.7,0,1.5,0.1,2.2c0.3,8.5,0.9,17,1.1,25.4c0.4,13.3,1.3,26.6,1.8,39.9c0.3,8.3,0.3,16.7,0.6,25
				c0.1,3.2,0.1,6.5,0.3,9.7c0,0.5-0.1,1.4,0.7,1.4c0.9,0.1,1-0.8,1.1-1.4c0.4-3.2,1.3-6.5,1-9.7c-0.3-4.2,1.5-6.4,5.1-7.7
				c1.3-0.5,2.4-1.1,3.7-1.5C218.5,88.2,223.9,91.1,225.5,98.6z M199,148.2c-0.4,6.1,0.2,12.2,0.1,18.2c-0.1,4.7,1.3,8.8,3.6,12.7
				c0.5,0.9,1.2,1.3,2.2,1.2c1.2-0.1,1.8-0.8,2-1.9s0.4-2.1,0.5-3.2c0.8-8.9,1.7-17.7,2.4-26.6c0.4-5.1,0.8-10.3,1.2-15.4
				c0.1-1.6-0.3-2-2-1.5c-2.2,0.7-4.5,1.2-6.8,1.5c-2.4,0.3-3.3,1.4-3.2,3.8C199,140.7,199,144.5,199,148.2z M25.8,151.5
				c0-5.9-0.1-10.4,0-14.9c0.1-2.1-0.8-3.1-2.8-3.3c-2-0.3-3.9-0.7-5.9-1.1c-2.8-0.6-3.2-0.2-3,2.7c1,12.8,2,25.7,3,38.5
				c0.1,1.7,0.3,3.5,0.8,5.2c0.5,2,3.2,2.7,4,1c1.4-2.7,3.1-5.2,3.3-8.5C25.6,164.1,26,157.1,25.8,151.5z"/>
		</g>
	</g>
</g>
</svg>
