<?xml version="1.0" encoding="utf-8"?>
<!-- Generator: Adobe Illustrator 26.5.3, SVG Export Plug-In . SVG Version: 6.00 Build 0)  -->
<svg version="1.1" baseProfile="tiny" id="Layer_1" xmlns="http://www.w3.org/2000/svg" xmlns:xlink="http://www.w3.org/1999/xlink"
	 x="0px" y="0px" viewBox="0 0 371.7 456.2" overflow="visible" xml:space="preserve">
<g id="HOlPhU.tif">
	<g>
		<path fill="#FFFFFF" d="M14.6,455.9c-4.2,0-8.4-0.1-12.6,0.1c-1.8,0.1-2.2-0.5-1.9-2.1c0.1-0.6,0-1.3,0-2c0.7-0.7,1.2-1.7,2.1-2.1
			c2-1,2-2.5,1.5-4.2c-1.2-4-0.9-8.1-0.9-12.1c0-4.4,0.3-8.8,0.7-13.2c0.6-6.7,0.2-13.3,0.6-20c0.6-11.9,1.4-23.8,1.8-35.6
			c0.2-6.3,0.5-12.6,0.7-19c0.5-16.5,1.8-32.9,2.2-49.3c0.1-4.3-0.3-8.7,1.8-12.7c0.5-1,0.5-2.2-0.4-3c-1.1-0.9-1.2-2.1-1.2-3.4
			c0-2.5,0.1-5,0-7.5c-0.1-2.4,0.5-3.9,3.2-4c1.1,0,1.8-0.7,1.3-1.8c-0.8-1.8-0.9-3.2,0.6-4.7c1.3-1.3,2.5-2.4,4.3-2.7
			c1.8-0.3,3.6-0.5,5.4-0.7c5.9-0.6,6.3-1.1,6.6-7.1c0.8-17.1,0.8-34.3,1.4-51.5c0.6-17,0.7-34,1.1-51c0.5-25.9,0.5-51.8,1.2-77.7
			c0.6-21.8-1.4-43.8,2.9-65.5c0.5-2.4,1.4-3.2,3.5-3.1c3,0.1,6,0.3,9,0.5c12.7,1.1,25.3,2.6,38,3.2c19.5,1,39.1,1.9,58.7,2
			c37.9,0.2,75.8,0.7,113.7-0.9c8.1-0.3,16.1-0.6,24.2-1.1c15.7-1,31.3-3,47-3.7c1.3-0.1,2.7-0.1,3.2,1.4c0.8,2.4,1.7,4.8,2,7.2
			c0.6,5,0.9,10,1,14.9c0.3,11.8,0.5,23.7,0.5,35.5c0.1,21,0.7,42,0.9,63c0.3,29.1,0.7,58.1,1.7,87.2c0.4,11.7,0.4,23.3,0.6,35
			c0.1,2.7,0.6,5.5,0.8,8.2c0.2,2.1,1.1,3,3.3,3.2c2.7,0.2,5.5,0.2,8.2,0.9c3.3,0.9,5.3,3.2,5.4,6.7c0,1.3,0.8,2.2,1.8,2.4
			c2.3,0.5,2.8,2.1,2.7,4.1c0,1.8-0.1,3.7,0.1,5.5c0.3,2.5-1.2,4.8-0.7,7.1c1.4,6.6,1.2,13.3,1.6,19.9c0.6,12.1,0.8,24.3,1.2,36.5
			c0.2,4.9,0.4,9.8,0.6,14.7c0.8,19.6,1.6,39.1,2.4,58.7c0.4,10,0.6,20,1.1,30c0.2,3.6,0.2,7.4,2.2,10.6c0,3.5,0,3.5-3.5,3.5
			c-3.7,0-7.3,0-11,0c-2.3-1.8-3.3-3.9-2.1-6.8c0.3-0.7,0.3-1.4,0.1-2.2c-2-7.4-2-15-2.1-22.6c-0.3-16.1-1.3-32.1-1.6-48.2
			c0-2.2-0.3-4.5-0.5-6.7c-0.1-0.9-0.2-2-1.4-2.1c-1.2-0.1-1.3,1.1-1.5,1.9c-0.1,0.6-0.3,1.1-0.4,1.7c-0.3,1.6-1.3,2.5-2.9,2.8
			c-2.8,0.4-5.7,0.4-8.5,0c-1.9-0.2-2.9-1.4-2.5-3.3c0.5-2.4,0.4-4.8,0.6-7.2c1.1-12.9,2.4-25.9,3.3-38.8c1-13.9,1.6-27.9,3.5-41.8
			c0.2-1.3-0.1-2.2-1.6-2.2c-3.3,0-6.6-0.3-9.9,0.9c-14.5,5.5-29,10.7-43.8,15.5c-25.9,8.3-52.4,13.2-79.5,15
			c-17,1.1-33.9,0.9-50.9-0.8c-16.4-1.7-32.7-4-48.7-8.1c-20.4-5.3-40.5-11.8-60-19.7c-4.6-1.9-9.2-3.2-14.3-2.8
			c-1.9,0.1-2.5,0.7-2.1,2.6c1.1,6.2,1.2,12.6,1.7,18.9c0.6,7.5,1.2,14.9,1.8,22.4c0.8,9.9,1.7,19.7,2.3,29.6c0.2,3-0.3,6.4,1.2,9.1
			c1.5,2.6,1.3,5,0.7,7.7c-0.4,2.1-1.7,3.2-3.8,3.3s-4.2,0-6.2,0c-2.1,0-3.7-0.7-4.5-2.8c-0.2-0.6-0.4-1.4-1.3-1.3
			c-0.9,0.1-1.3,0.8-1.5,1.5c-0.3,1.9-0.6,3.8-0.7,5.7c-0.5,22.8-1.2,45.6-2.6,68.4C17.5,449.1,18,453.1,14.6,455.9z M204.8,296.2
			c4.8,0.3,9.4-0.3,14-0.7c3.1-0.3,5.9-1.6,9-1.5c5.9,0.1,11.7-1.6,17.4-2.6c4.4-0.7,8.9-1.8,13.2-3.1c1.8-0.5,3.9-0.6,5.4-1.5
			c2.5-1.6,5-2,7.8-2.1c0.8,0,1.4-0.1,2.1-0.5c3.3-1.7,7-2.4,10.4-3.7c4.6-1.8,9.8-1.8,14-4.9c0.4-0.3,1-0.3,1.4-0.3
			c1.8,0.1,3.4-0.8,5.1-1.1c0.9-0.1,1.3-0.7,1.2-1.6c-0.1-0.9-0.7-1-1.5-1c-1.4,0-2.8,0.1-4.2,0.2c-6.1,0.7-12.2,1.2-18.3,1.4
			c-5.6,0.2-11.2,0-16.7,0.4c-10.9,0.9-21.8,1.3-32.8,1.8c-6.5,0.3-13,0.2-19.4,0.3c-7.5,0.2-15,0.1-22.5,0.2c-11,0-22,0.1-32.9-0.2
			c-8.8-0.2-17.6,0.1-26.3-0.7c-7.1-0.7-14.3-0.5-21.5-1.3c-10.1-1-20.4-0.1-30.6-1.3c-2.4-0.3-4.8-0.3-7.2-0.6
			c-2.8-0.3-5.6,0-8.3-0.8c-0.5-0.1-1.3-0.2-1.4,0.6c-0.1,0.6,0.6,0.7,1.1,0.9c2.5,0.7,4.7,2.3,7.4,2.7c3.7,0.5,7.1,2.4,10.6,3.6
			c3.2,1.1,6.5,1.9,9.7,3c3.5,1.3,7.4,2.3,11.1,3.3c4,1.1,8.1,2.2,12.1,3.2c5.3,1.3,10.5,2.6,15.9,3.6c7.1,1.3,14.3,1.8,21.4,3.1
			c9,1.7,18.3,1.1,27.5,1.6C187.7,297.3,196.3,296.8,204.8,296.2z"/>
	</g>
</g>
</svg>
