<?xml version="1.0" encoding="utf-8"?>
<!-- Generator: Adobe Illustrator 26.5.3, SVG Export Plug-In . SVG Version: 6.00 Build 0)  -->
<svg version="1.1" baseProfile="tiny" id="Layer_1" xmlns="http://www.w3.org/2000/svg" xmlns:xlink="http://www.w3.org/1999/xlink"
	 x="0px" y="0px" viewBox="0 0 612 792" overflow="visible" xml:space="preserve">
<g id="Layer_2_00000047760851058646955260000015537127850737217411_">
</g>
<g id="Layer_1_00000047758503077034752000000018242736366392254112_">
	<path stroke="#000000" stroke-width="10" stroke-miterlimit="10" d="M335,289"/>
	<g id="sIRtmu.tif">
		<g>
			<path fill="#FFFFFF" d="M147,644.5c-1,0-2,0-3,0c-4-1.3-4.1-1.5-3.9-5.9c0-0.7,0-1.6,0.3-2.2c1.1-2.5,1.6-5.1,2.4-7.6
				c0.9-2.7,1.8-5.5,5-6.8c11.1-4.5,21.9-9.9,32.8-14.8c18.9-8.5,37.8-17,56.7-25.6c1.2-0.5,3-0.9,3-2.3c-0.1-1.5-2-1.4-3.2-1.7
				c-14.5-3.6-28.7-8.1-43.2-11.5c-6.3-1.5-12.5-3.4-18.8-5.1c-2.9-0.8-5.8-1.4-8.8-2c-1.5-0.3-2.8,0-3.2,1.9
				c-0.9,4-3.3,5.5-7.2,4.3c-2.7-0.8-5.4-1.6-8.2-2.2c-1.2-0.2-2.5-0.7-2.7-1.9c-0.6-3.3-1.7-6.8-0.5-9.8c1-2.6,1.6-5.2,2.3-7.8
				c0.8-3.1,2.1-3.9,5.3-3.3c2.9,0.5,5.9,1.1,8.8,1.6c7.3,1.1,14.7,2.1,22,3.2c11.6,1.7,23.2,3.5,34.8,5.3
				c7.9,1.2,15.8,2.2,23.7,3.4c9.9,1.4,19.7,3.2,29.6,4.4c2.1,0.2,3.1-0.4,2.9-2.5c-0.9-11.1-0.3-22.2-0.5-33.2
				c-0.1-5.1,0.1-10.2-0.4-15.2c-0.8-7.6-0.8-15.3-0.7-22.9c0.1-9.3-0.4-18.7-0.2-28c0.1-1.9-0.7-3-2.8-2.9c-4,0.1-8-0.4-12-0.5
				c-11.2-0.2-22.5-0.4-33.7-1.1c-6.9-0.5-13.8-0.4-20.6-1.8c-19.2-3.7-36.8-11.5-53.6-21.3c-19.2-11.3-35.2-26.3-49.6-43.1
				c-4.9-5.8-9-12.2-13.2-18.5c-3.7-5.5-6.7-11.3-9.1-17.5c-1.6-4.2-2.7-8.6-4.3-12.8c-2.1-5.8-3.8-11.7-5.3-17.7
				c-0.8-3.2-1.2-6.6-2.7-9.6c-4.3-9-5.9-18.7-8.1-28.3c-0.2-1-0.2-2-0.1-3c0.4-9.6,9.1-19.8,19.2-22.6c9.9-2.7,19.4-1.1,28.6,2.7
				c11.9,4.9,21.2,13,28.8,23.3c9.3,12.7,16.4,26.6,23.1,40.8c5.4,11.5,10.5,23.2,17.8,33.8c3.1,4.5,6.5,8.6,10.7,12.1
				c4,3.3,8.2,6.3,13,8.3c1.1,0.5,2.3,0.6,2.6-0.9c0.9-4.4,2.1-8.8,0.7-13.3c-3.1-10-7.8-19.3-13.3-28.2
				c-10.5-17.2-23-33.1-34.9-49.3c-9.6-13.1-19.6-25.9-28.1-39.8c-6-9.7-11.2-19.6-13-31.1c-1.9-12.5,1.1-23.2,9.4-32.6
				c13.2-15.1,30.1-24.9,48.3-32.5c18.5-7.8,38.1-12.1,57.8-15.3c13.5-2.2,27.1-3.2,40.7-3.8c5.1-0.2,10.2-0.1,15.2-0.6
				c12.5-1.1,25,0,37.4,0.9c11.4,0.8,22.7,2.2,33.9,4.1c14.3,2.5,28.5,5,42.4,9.1c11.4,3.4,22.4,8,33,13.5
				c11.6,6,21.8,13.5,28.7,24.8c6.1,9.9,8.6,20.4,5.2,32c-2.1,7-5.5,13.4-8.8,19.8c-8.3,15.8-19.7,29.5-29.6,44.2
				c-11.7,17.3-24.7,33.7-36,51.4c-7.4,11.5-14.2,23.4-17.3,36.9c-0.6,2.7-0.7,5.3-0.3,7.9c0.3,2.5,1.6,3.4,3.5,2.5
				c6.9-3.1,13.8-6.4,19.3-11.8c8.3-8.2,14.2-18.1,19.3-28.4c6.5-13.2,12-26.9,19.1-39.9c6.2-11.3,13.3-21.8,24-29.6
				c9.6-7.1,20.1-11.2,32.1-10.1c7.9,0.7,14.6,4.3,19,11c2.9,4.4,5.7,8.9,5.5,14.4c0,1,0,2,0,3c-1.3,4.8-1.4,9.9-3.2,14.6
				c-3.7,9.2-6,18.9-9.7,28.1c-3.7,9.4-7,18.9-10.8,28.2c-7.4,18.1-19.3,33.2-32.7,47.1c-9.1,9.5-19.7,17.2-30.6,24.4
				c-13.1,8.7-26.9,15.6-42.2,19.5c-13.7,3.5-27.6,4.4-41.6,4.9c-13.7,0.5-27.5,1-41.2,1.2c-3.2,0.1-3.5,0.2-3.3,3.5
				c0.6,12.2,0.4,24.3,0.4,36.5c0,4.8,1,9.9-1.5,14.5c-0.2,0.3-0.1,0.8-0.1,1.2c0,15.2,0,30.5,0,45.7c0,2.3,0.9,2.8,3.1,2.4
				c16.1-3.3,32.3-6.5,48.4-9.9c17.5-3.7,35-7.6,52.5-11.4c4.1-0.9,5.6,0.2,6,4.4c0.2,2,0.6,3.9,1.4,5.8c1.2,2.9,0.7,5.6-1.3,6.5
				c-4.8,2.1-9.6,4.3-15,1.9c-0.8-0.4-1.6-0.1-2.4,0.2c-4,1.3-8.1,2.5-12.1,4c-14.8,5.8-29.9,10.9-44.8,16.2
				c-0.8,0.3-2.1,0.3-2.1,1.4c-0.1,1.3,1.3,1.3,2.2,1.7c12,4.4,24.2,8.6,36.2,13.1c14.1,5.3,28.4,10.2,42.6,15.3
				c9.6,3.4,19.1,6.9,28.7,10.3c2.6,0.9,4.1,2.5,4.6,5.3c0.4,2.2,0.2,4.6,1.4,6.6c1.2,2,1.4,4.1,1.6,6.2c0.2,2.1-0.9,3.1-2.8,3.4
				c-1.1,0.2-2.2,0.1-3.2-0.2c-4.5-1.4-9.1-2.8-13.6-4.1c-1.6-0.5-2.6-1.5-2.9-3.1c-0.3-1.5-1.2-2.1-2.7-2.5
				c-4.4-1.2-8.8-2.5-13.2-3.8c-4.7-1.4-9.3-3.2-14-4.2c-9.3-2.1-18.4-4.5-27.6-6.8c-8.9-2.2-17.5-5.4-26.5-7.3
				c-7.6-1.6-15.1-3.5-22.5-5.7c-9.1-2.6-18.4-4.9-27.8-5.9c-10.2-1.1-19.9,1.7-29.3,5.1c-22.9,8.2-46,15.7-69,23.6
				c-9.6,3.3-19.3,6.4-29,9.5c-2.1,0.7-3.4,1.6-3.3,4c0.1,1.6-0.8,2.9-2.3,3.2C154.5,640.6,151.2,643.6,147,644.5z"/>
		</g>
	</g>
</g>
</svg>
