<?xml version="1.0" encoding="utf-8"?>
<!-- Generator: Adobe Illustrator 26.5.3, SVG Export Plug-In . SVG Version: 6.00 Build 0)  -->
<svg version="1.1" baseProfile="tiny" id="Layer_1" xmlns="http://www.w3.org/2000/svg" xmlns:xlink="http://www.w3.org/1999/xlink"
	 x="0px" y="0px" viewBox="0 0 298.7 432.8" overflow="visible" xml:space="preserve">
<g id="Layer_2_00000147197277135128564350000005655866978024540844_">
</g>
<g id="Layer_1_00000057148326901209052890000006958425310994169791_">
	<path stroke="#000000" stroke-width="10" stroke-miterlimit="10" d="M194.7,119.8"/>
	<g id="MAEN28.tif">
		<g>
			<path fill="#FFFFFF" d="M297.7,92.8c-3.3,3.4-6.9,6.3-8.2,11.4c-0.9,3.5-4.7,4.6-7.7,4.5c-13.1-0.1-21,6.6-26.9,17.7
				c-6,11.3-13.4,21.9-19.9,33c-2.7,4.6-2.1,5.2,3.3,5.1c4-0.1,8-0.7,12-0.1c6.6,1,9.3,5.9,6.7,12c-1.1,2.5-2.9,4.4-5,6.1
				c-24.2,18.1-51.5,28.7-81.3,33.6c-1,0.2-2,0.4-3,0.5c-13.6,1.4-11.8,0.4-12.2,14.7c-0.4,12.5,1.5,24.9,1.5,37.4
				c0,4.4,3.3,6.4,6.2,8.5c14.5,11,29,21.8,43.5,32.7c17.4,13.1,34.7,26.5,52.3,39.4c7.6,5.6,11.8,12.5,11,22
				c-0.4,4.9,0.9,7.9,6.5,7c1.1-0.2,2.3,0.1,3.4,0.5c5.1,1.7,8.9,9,8.7,16.2c-0.1,4.5-5,9.9-10.1,11.1c-5.9,1.5-10.6-0.9-14.2-6.6
				c-2.7-4.4-3.8-8.8-1.9-13.8c0.6-1.5,0.6-3.2,0.9-4.9c0.9-5.4-1.1-8.6-6.6-10.4c-7.3-2.3-14.3-5.5-21.4-8.5
				c-3-1.3-4.7-1.2-6.1,2.2c-2,4.7-5.1,4.8-8.5,0.6c-1.5-1.9-2.8-2.3-4.4-0.3c-1.7,2.1-3.7,2.8-6.2,1.7s-3.4-3.5-2.9-5.9
				c1.7-8.3-3-11.3-9.8-13.8c-11.4-4.1-22.6-9.1-33.9-13.6c-5.9-2.4-6.7-1.9-6.7,4.4c0,3.7,0.4,7.3-3.4,9.8c-1.3,0.8-1,2.7-1,4.2
				c0.1,16.5,0.3,33,0.3,49.5c0,3,1,4.5,4.2,3.8c4.1-0.9,6.4,1.2,7.4,4.8c1.4,4.8,1.8,9.9,1.2,14.9c-0.8,6.1-5.4,8.1-10.3,4.4
				c-2.1-1.6-3-1.6-4.7,0.6c-3.2,4.1-8.4,3.3-10.3-1.5c-2.2-5.7-2.8-11.6-1.5-17.7c0.3-1.3,0.6-2.8,1.9-3.4c4.6-1.8,4.6-5.7,4.5-9.6
				c-0.3-15,0.9-30-1-44.9c-0.2-1.6-0.1-3.6-1-4.8c-2.6-3.6-3.2-7.6-2.9-11.8c0.2-3.6-1.4-4.3-4.6-3c-14.3,5.9-28.7,11.7-43.1,17.4
				c-2.6,1-4.3,2.4-3.9,5.5c0.4,2.6-1,4.5-2.4,6.4c-5.4,7.4-17.7,9.1-24.6,3.4c-1.9-1.6-3.5-1.3-5.5-0.5c-5.2,2.1-10.5,4.2-15.8,6.3
				c-6.3,2.5-8.2,8.6-3.8,13.8c5.7,6.6,3.1,14-1.2,19c-3,3.5-7.2,4.8-11.8,3.1c-2.5-0.9-5-1.9-7.5-2.8c-8.6-3.2-10.6-13.6-4.1-20.3
				c3.5-3.7,6.9-6.1,12.2-3.9c2.6,1.1,3.6-0.1,3.3-2.9c-1.5-12.7,3.9-21.6,14.2-29.2c31.7-23.5,63-47.7,94.5-71.4
				c3.3-2.5,4.3-5.2,4.6-9.2c1-14.4,1.7-28.8,1.6-43.3c0-4.7-1.7-6.6-6.2-7c-17.4-1.4-33.7-7.2-50.3-12.3
				c-13.9-4.3-24.7-13.4-37-20.2c-2.8-1.5-5.2-3.7-6.9-6.4c-4-6-0.9-12.8,6.2-13.8c4-0.6,8-0.1,12,0.1c3.5,0.2,4.9-1,3-4.3
				c-8.9-15.5-18.1-30.7-28.2-45.5c-2.3-3.3-6-4-9.6-4.6c-3.3-0.6-6.6-1-9.9-1.6c-4.1-0.7-7.2-2.6-7.8-7.2c-0.3-2.7-2.4-3.8-4.1-5.4
				c-3.7-3.3-3.2-6,1.4-7.7c3.4-1.3,6.9-1,10.4-0.5c9.1,1.3,18,3.4,26.8,6.2c8.7,2.7,15.4,12.3,15.4,21.3c0,3-1.4,5.5-4.6,5.6
				c-4.9,0.1-3.7,2.2-2,4.9c4.8,7.6,9.6,15.2,14.3,22.9c2.7,4.4,5.3,8.9,6.4,14c0.5,2.5,1.9,3.7,4.5,3.8c3.3,0.2,6.7,0.5,9.9-0.5
				c7.8-2.3,9.5-4.4,8.4-12.4c-2.3-17.4-8.7-33.5-17.3-48.7c-10.2-18-22.9-34.4-33.2-52.3c-4-7-7-14.4-7.2-22.6
				C36.4,15,49.5,1.6,64.5,1.2c10.9-0.3,21.5,2,32.2,3.4c26.4,3.5,52.8,6,79.6,2.9c15.7-1.8,31.3-4.1,47-6
				c9.8-1.2,19.4-0.5,27.5,6.1c10.2,8.3,12.6,22.1,6.5,36.1c-3.8,8.6-8.8,16.4-13.9,24.3c-8.8,13.4-17.9,26.5-25.7,40.5
				c-7.1,12.8-11.7,26.5-14.7,40.7c-2.6,12.1,7.9,20.8,19.7,16.9c1.2-0.4,2-1.1,2.4-2.3c4.1-13.1,12.7-23.7,19.5-35.3
				c0.3-0.6,0.7-1.1,1-1.7c1.6-2.8,4.6-5.9-2.1-6.4c-2.6-0.2-4-2.6-3.6-5.2c1.3-8.5,3.5-16.9,12.5-20.2c11.9-4.4,24.1-7.6,37-7.8
				c3.1,0,5.9,0.7,8,3.3C297.7,91.5,297.7,92.1,297.7,92.8z M140.5,305.1L140.5,305.1c0.1-5.3,0.1-10.6,0-16c0-1.4,0.7-3.3-0.9-4.1
				c-1.6-0.9-2.7,0.8-3.8,1.7c-16,13-31.9,26.1-47.8,39.2c-1.3,1.1-2.4,2.3-3.1,3.9c-0.7,1.5-1.4,3.2-0.5,4.8c1,1.9,3,1.3,4.5,1
				c15.8-3,31.7-6.1,47.5-9.1c2.9-0.6,4.2-2.2,4.1-5.3C140.4,315.7,140.5,310.4,140.5,305.1z M157.1,303.8L157.1,303.8
				c0,4.7,0.3,9.3-0.1,14c-0.4,4.8,1.6,6.9,6.2,7.7c14.9,2.9,29.7,6.1,44.5,9.1c1.8,0.4,4.1,2,5.4-0.3c1.2-2.3-0.2-4.5-1.8-6.3
				c-3.4-3.9-7.4-7.1-11.4-10.4c-12.6-10.3-25.2-20.7-37.9-30.9c-1.1-0.9-2.2-2.5-3.9-1.4c-1.3,0.8-1,2.4-1,3.7
				C157.1,293.8,157.1,298.8,157.1,303.8z M221,330.8c0,3.4,0.1,6,0,8.6c-0.2,3.5,0.8,5.4,4.7,5.1s5.6,1.9,5.3,5.5
				c-0.3,4,1.8,6,5.3,7.4c7,2.7,13.9,5.6,20.9,8.3c1.7,0.7,4.1,2.8,5.4,0.9c1.2-1.8-0.9-4-2.3-5.6c-1.9-2.1-4-4.1-6.2-5.8
				c-6.4-5-13-9.9-19.5-14.8C230.3,337.4,226.5,333.6,221,330.8z M76.7,336.4c-0.2-1.5,1.3-3.4-0.5-4.5c-1.1-0.7-2.2,0.5-3.1,1.1
				c-10.9,8.2-21.8,16.5-32.6,24.8c-2.3,1.8-3.9,4.1-4.7,6.9c-0.6,2,0.2,3.1,2.3,2.4c6.1-2.3,12.1-4.7,18.1-7.2
				c0.8-0.3,1.8-1.4,1.8-2.2c0.3-8.2,6.1-10.8,12.7-12.5C75.2,343.9,77.8,341.5,76.7,336.4z M111.7,334.8
				c-8.8,1.7-16.9,3.1-24.9,4.8c-2.5,0.5-3.5,2.5-2.7,5c0.8,2.6,2.7,3.1,5.1,2.1c6.2-2.7,12.5-5.3,18.7-8.1
				C109.3,338,111.1,337.8,111.7,334.8z M198.3,337c-2.1,0.3-4.1-0.8-4.7,1c-0.7,2.2,1.7,2.5,3.1,3.2c2.5,1.3,5.3,2.1,7.8,3.4
				c2.8,1.4,5.1,0.8,7.4-0.8c0.8-0.6,2-0.8,1.9-2c-0.1-1.5-1.4-1.9-2.5-2.1C206.8,338.7,202.3,337.8,198.3,337z"/>
		</g>
	</g>
</g>
</svg>
