<?xml version="1.0" encoding="utf-8"?>
<!-- Generator: Adobe Illustrator 26.5.3, SVG Export Plug-In . SVG Version: 6.00 Build 0)  -->
<svg version="1.1" baseProfile="tiny" id="Layer_1" xmlns="http://www.w3.org/2000/svg" xmlns:xlink="http://www.w3.org/1999/xlink"
	 x="0px" y="0px" viewBox="0 0 612 792" overflow="visible" xml:space="preserve">
<g id="Layer_2_00000132060018547309075260000014906177920792240790_">
</g>
<g id="Layer_1_00000141437334759386061220000011903971367755164604_">
	<path stroke="#000000" stroke-width="10" stroke-miterlimit="10" d="M335,289"/>
	<g id="gkHoAW.tif">
		<g>
			<path fill="#FFFFFF" d="M557.6,401.8c-1,1.6-0.9,3.5-0.8,5.1c0.7,7.6,2.2,15,3.3,22.5c0.1,0.4,0.2,0.7,0.2,1.1
				c0.1,0.8,0.5,1.8-0.7,2c-1,0.2-1.4-0.7-1.6-1.5c-0.3-1.1-0.7-2.2-0.7-3.3c-0.3-5.8-2-11.4-2.6-17.2c-0.4-4.1-0.3-8.1,0.3-12.1
				c0.6-3.9,1.2-7.8,0.5-11.8c-0.6-3.8-0.2-7.7,0.5-11.5c1-6.1,1.3-12-0.1-18.1c-1-4.3-1.3-8.8-1-13.2c0.1-1.5-0.2-3.2-0.5-4.7
				s-1.2-2.1-2.5-0.7c-3.3,3.5-6.8,6.8-10,10.4c-6.3,7.1-13.1,13.7-19.3,20.9c-8,9.4-16.1,18.7-24.2,28.1
				c-5.2,6-10.4,12.1-15.7,18.1c-0.9,1-1.4,2.1-1.4,3.4c0.1,3.1,0.1,6.2,0.1,9.3c0,1.6,1.3,2.7,1.3,4.3c0.1,7.3,1.4,14.9-0.1,21.8
				c-2.1,9.9-1,19.7-1.4,29.6c-0.7,16-0.2,32.1-0.3,48.1c0,2.3-0.9,3.5-3.2,3.8c-1,0.1-1.9,0.3-2.9,0.3c-4.6,0-5.9-1.2-5.9-5.9
				c0-4.5,0-9,0-13.6c0-4.4-3.7-6.6-7.6-4.6c-2.9,1.5-5.8,1.1-8.7-0.1c-1.4-0.6-1.5-1.8-1.4-3.1c0.1-1.8-0.5-2.6-2.4-2.6
				c-13.8,0.1-27.6-0.1-41.4,0.1c-33.6,0.6-67.2,0.2-100.8,0.3c-10.7,0-21.4,0-32.1,0c-2,0-2.6,0.7-2.6,2.6c0.1,7.6,0,15.2,0,22.8
				c0,2.8-0.5,3.4-3.3,3.9c-0.4,0.1-0.7,0.1-1.1,0.1c-6.8,0.5-7.6-0.3-7.6-6.9c0-6.4,0-12.8-0.1-19.2c0-2.8-0.4-3.3-3.2-3.3
				c-57.8,0-115.6,0-173.4,0c-2.9,0-3,0.1-3,3.1c0,1.6-0.6,2.5-2.1,3c-2.3,0.8-4.6,0.9-6.8,0.1c-0.9-0.3-1.7-0.8-2-1.7
				c-0.8-2.5-1.8-1.6-3.2-0.4c-2.4,2.1-3.4,4.6-3.2,7.8c0.3,4.5-0.2,9,0.4,13.5c0.3,2.6-0.5,3.5-3,4.1c-0.7,0.2-1.5,0.3-2.2,0.3
				c-5.6,0.2-6.7-0.7-6.7-6.3c-0.1-14.5-0.4-28.9-0.5-43.4c0-8.6-0.2-17.3-0.3-25.9c0-1.4-0.1-2.7-1-3.9c-0.7-1-0.7-2.2-0.8-3.3
				c-0.3-6.8-0.5-13.7,0.7-20.2c1.3-7,1-13.9,0.8-20.9c-0.1-4.3-0.9-8.7-1.2-13c-0.6-7-1.1-14.1-1.7-21.1
				c-0.8-8.6-2.6-17.1-4.3-25.6c-2.9-14.8-5.6-29.7-8.6-44.5c-0.8-3.8-1.3-7.5-3.2-11.1c-2-3.9-2.4-8.5-3.3-12.8
				c-0.3-1.4,0.9-1.6,1.9-1.6c2-0.1,4.1,0,6.1-0.1c2.7-0.1,3.4-1.1,2.8-3.7c-0.9-4.1-0.7-4.9,1.6-6.2c2.6-1.5,6.7-1.2,8.7,0.7
				c2.3,2.2,5.4,2.1,8.1,3c0.7,0.2,1.2-0.3,1.4-1.1c0.7-2.9,3.2-4.6,6.1-4.1c2.1,0.4,4.1,0.7,4.3,3.6c0.1,1.5,2.1,1.6,3.4,1.6
				c6.1,0,12.3-0.4,18.4-0.2c5.9,0.2,11.8-0.1,17.8,0.5c3.8,0.4,7.6,0.1,11.5,0.2c3.7,0.1,7.3,0.4,11,0.3c4.1-0.2,8.2,0.1,12.4-0.1
				c3-0.2,6.1,0.2,9.2,0.1c7.3-0.1,14.7,0.2,22,0c3.2-0.1,6.5,0.1,9.7,0c4.3-0.1,8.5,0,12.8,0c3.3,0,6.7-0.2,10,0
				c4.1,0.2,8.3-0.3,12.4-0.3c3.6,0,7.1-0.3,10.7-0.4c2.6,0,5.2-0.4,7.9-0.5c5.7,0,11.4-0.5,17.1-0.8c2-0.1,3.6-0.9,5.1-2.2
				c3.5-3,7.2-2.9,10.4,0.3c0.8,0.8,1.8,1.2,2.8,1.4c3.2,0.5,6.4,0.4,9.6,0.6c3.9,0.2,7.8,0.2,11.7,0.4c6,0.3,12,0.3,18,0.5
				c10,0.5,20,0,30,0.3c3.5,0.1,6.9,0.6,10.3,0.7c3.3,0.1,6.6,0.1,9.9,0.1c4.7-0.1,9.4-0.2,14.1-0.3c7.3-0.1,14.6-0.2,21.8,0
				c15.9,0.4,31.9-0.3,47.8,0c2.9,0,5.9,0.2,8.7-0.4c2.8-0.6,5.3-1.4,7-4.2c1.5-2.5,7.2-2.3,8.9,0.1c0.5,0.8,0.4,1.6,0.1,2.4
				c-0.6,1.8,0.1,2.9,1.9,3.4c1.6,0.5,3.2,0.9,4.7,1.5c2,0.8,3,0.1,3.3-1.9c0.2-1.4,1.4-2.6,0.8-4.2c-0.1-0.3,0.5-1.1,0.9-1.5
				c2.2-2.2,8.1-1.6,9.9,0.9c0.5,0.7,0.5,1.4,0.3,2.2c-0.5,2.8,0.3,4,2.9,4.3c2.3,0.3,4.2,1.3,6.2,2.4c3.7,2.1,7.9,2.9,11.7,4.6
				c2.6,1.2,5.6,0.9,7.9,2.4c3.9,2.6,8.4,3.7,12.6,5.4c4.8,2,9.9,3.2,14.6,5.3c4.1,1.8,8.3,2.9,12.5,4.3c1.6,0.5,2.9,0.8,3.8-1.3
				c0.5-1.1,1.7-1.5,3.1-1.1c2.2,0.6,3.9,1.9,5.1,3.8c0.8,1.3,1.1,2.5-0.1,3.7c-0.9,0.9-0.4,1.5,0.1,2.5c3.8,7.3,8.7,14.2,8.5,22.9
				c-0.1,5.3,0.5,10.5,2.1,15.5c1.9,6,1,11.9-0.1,17.8c-0.5,2.9-0.9,5.9,0,8.9c1.9,6.6,1.1,13.1-1.6,19.2c-1.8,4-2.9,7.7-1.8,12.1
				c1.2,4.8,0.1,9.7-0.4,14.6c-0.6,5.8-1.5,11.5-3.5,17c-0.3,0.9-0.8,1.8-1.3,2.6c-0.4,0.6-1.1,0.9-1.8,0.6
				c-0.8-0.4-0.8-1.2-0.4-1.7c2.4-4.1,2.6-8.9,3.8-13.3c1.2-4.2,1.4-8.4,1.3-12.7c-0.1-2.5-0.1-5-0.1-7.5c0-0.6,0.1-1.3-0.8-1.4
				c-0.7-0.1-1,0.6-1.1,1.2c-0.8,4.6-2,9.1-2.4,13.8c-0.4,5.2-0.9,10.5-1.3,15.7c-0.1,0.7,0,1.5,0,2.2s0.3,1.7-0.9,1.7
				c-0.9,0-1.1-0.9-1.2-1.7c0-0.4,0-0.9,0-1.4c-0.9-6.1,0.7-12,1.1-17.9c0.5-6.6,2.7-12.8,4.8-18.9c0.6-1.6,0.5-3.2,0.5-4.9
				c0-5.4-0.4-10.8,0.7-16.2c0.4-2.1,1.6-3.9,1.8-6c0.3-3.2,0.1-6.3-0.8-9.4c-0.5-1.7-0.8-3.5-0.8-5.3c0-5.4,0.6-10.9,0.3-16.2
				c-0.4-8.3-2.7-16.3-5.2-24.2c-0.4-1.3-1.5-2.4-2.3-3.6c-0.3-0.4-0.7-0.9-1.3-0.5c-0.4,0.3-0.5,0.8-0.2,1.2c2.3,3,0.4,5-1.6,7
				c-3.1,3-5.6,6.7-9.6,8.7c-0.7,0.4-0.8,1.1-0.8,1.8c0,3.2-0.2,6.5,0.9,9.6c1.5,4.4,1.6,9,2.6,13.5c0.1,0.3,0.1,0.6,0,0.9
				c-1.3,4.2-0.7,8.5-1,12.7c-0.1,1.4,0.2,2.8,0.3,4.3c0.2,4.9-0.3,9.7-1.2,14.6c-1.3,7.2-0.3,14.2,3.3,20.6
				c0.1,0.3,0.3,0.6,0.3,0.8c-0.5,5.9,2.6,11,3.2,16.7c0,0.2,0.1,0.4,0.1,0.7c0.1,0.8-0.2,1.4-0.9,1.6c-1,0.3-1.1-0.5-1.3-1.2
				c-0.7-2.7-1.3-5.4-2-8.1c-1.3-5-2.6-10.1-3.9-15.1C558.1,404.3,557.9,403,557.6,401.8z M170.3,475.1
				C170.3,475,170.3,475,170.3,475.1c29-0.1,58-0.1,87,0c2,0,2.9-0.6,2.8-2.6c-0.3-5.2,0.7-10.3-0.7-15.5c-0.9-3.3-0.6-3.4-4.1-3.4
				c-37.4,0.1-74.7,0.2-112.1,0.3c-20.1,0-40.2,0.1-60.3,0.1c-2.1,0-2.8,0.7-2.7,2.7c0.2,4.9,0.2,9.8,0.2,14.7c0,3.8,0,3.8,3.8,3.8
				C112.9,475.1,141.6,475.1,170.3,475.1z M358,453.5L358,453.5c-17.6,0.1-35.3,0.1-52.9,0.1c-9.7,0-19.4,0-29.2,0
				c-1,0-2.6-0.2-2.6,1.1c-0.1,2.5-1.4,4.8-1,7.3c0.4,3.1,0.3,6.3,0.1,9.5c-0.1,3.2-0.2,3.2,3.1,3.2c26.5,0.2,53,0,79.6,0.3
				c31.3,0.3,62.5,0.1,93.8,0.1c1.9,0,2.7-0.7,2.7-2.6c-0.1-5.6-0.1-11.3-0.1-16.9c0-1.6-0.8-2.3-2.4-2.3c-3.4-0.1-6.8,0.3-10.2,0.3
				C412,453.5,385,453.5,358,453.5z M170.6,486.5L170.6,486.5c-28.6,0-57.1,0-85.7,0c-4.4,0-4.4,0-4.5,4.5c0,3.4,0,3.4,3.5,3.4
				c21.8,0,43.7,0,65.5,0c35.6,0,71.3,0,106.9,0c3.3,0,3.5-0.2,3.7-3.6c0-0.3,0-0.6,0-0.9c0-3.5,0-3.5-3.5-3.5
				C228,486.5,199.3,486.5,170.6,486.5z M361.8,486.5L361.8,486.5c-28-0.1-56.1-0.1-84.1-0.1c-6.3,0-5.4-1-5.5,5.8
				c0,0.2,0,0.3,0,0.5c0,1.3,0.6,1.7,1.9,1.6c6.8-0.4,13.7-0.2,20.6-0.2c39.3-0.1,78.5-0.1,117.8-0.1c12.1,0,24.3,0,36.4,0.1
				c2.1,0,3-0.7,2.7-2.7c-0.1-0.4,0-0.9,0-1.4c0-3.4,0-3.4-3.6-3.4C419.2,486.5,390.5,486.5,361.8,486.5z M487.4,346.6
				c0,1,0,1.8,0,2.5c0,0.6-0.3,1.5,0.6,1.8c0.8,0.2,1.2-0.4,1.7-0.9c1.5-1.7,3-3.4,4.4-5.1c3-3.5,5.8-7.3,9-10.6
				c4-4.1,6.7-9,9.9-13.5c3.6-5,7.3-9.7,11.7-13.9c0.8-0.8,1.8-1.4,2.6-2.2c0.9-0.8,1-1.5-0.3-2.2c-2.6-1.4-5.2-2.8-7.8-3.8
				c-7.7-2.8-15.2-6.1-23.1-8.2c-1.2-0.3-2.1-2.2-3.3-1c-0.7,0.8-0.5,2.4-0.7,3.7c0,0.3,0,0.6-0.1,0.9c-0.8,9.6-1.7,19.2-2.5,28.7
				C488.8,330.9,488.1,338.9,487.4,346.6z M464.8,375c0,0.9,0,1.3,0,1.8c0,0.6-0.3,1.3,0.3,1.7c0.8,0.5,1.2-0.4,1.7-0.8
				c1.4-1.1,2.6-2.3,4-3.3c2-1.4,2.8-3.2,3-5.5c0.4-5.8,0.9-11.5,1.5-17.3c1-10.6,2.4-21.2,3.2-31.8c0.8-11,1.9-22,3.1-33
				c0.1-1.3-0.4-1.7-1.4-2.3c-2-1.1-4.2-1.4-6.1-2.6c-1.8-1.2-2.3-1-2.4,1.2c-0.4,4.8-0.7,9.6-1,14.4c-0.7,9.6-1.4,19.2-2.1,28.8
				c-0.5,7-1,13.9-1.5,20.9C466.3,356.5,465.5,366,464.8,375z M462.6,472.1L462.6,472.1c0,5.3,0.1,10.7-0.1,16
				c-0.1,2.4,1,3.8,2.6,5.1c1,0.8,2.1,0.9,3.2,0.4c1.1-0.4,0.8-1.5,0.8-2.4c0.1-8.2,0.1-16.4,0.1-24.6c0-3.9,0.2-7.7-1.2-11.6
				c-0.8-2.4-2.2-2-3.7-2c-2,0-1.7,1.5-1.7,2.7C462.6,461.3,462.6,466.7,462.6,472.1z M69.4,472.7c-0.1,0-0.2,0-0.3,0
				c0-5.6,0-11.1,0-16.7c0-0.9,0-2-1.3-2c-1.2,0-3-0.6-3.3,1c-0.4,1.6-1.3,3.1-1.3,4.8c0,10.8,0.1,21.7,0.1,32.5
				c0,0.7-0.1,1.6,0.8,1.9c0.9,0.3,1.8,0.3,2.6-0.3c1.6-1.4,2.9-2.9,2.8-5.4C69.3,483.3,69.4,478,69.4,472.7z M492.9,284.7
				c-0.3,1.2,0.8,1.8,2,2c3.5,0.8,6.8,2.3,10.2,3.5c8.1,2.8,16,6,23.9,9.3c3.4,1.5,7,2.3,10.5,3.3c1,0.3,1.9,0.2,2.3-1.1
				c0.3-1.3-0.5-1.5-1.4-1.9c-4.4-1.6-8.7-3.3-13.1-4.9c-1.3-0.5-2.5-1.2-3.9-1.2c-2.1,0.1-3.8-0.8-5.4-1.9c-1.5-1-3.1-1.8-4.8-2.4
				c-2.8-1-5.8-1.8-8.5-3c-2.9-1.3-6.4-1.2-9-3.3c-0.6-0.5-1.2-1.2-2-0.7C492.8,282.8,493,283.7,492.9,284.7z M580.2,395.6
				c1.3-0.5,1.6-1.4,1.9-2.2c1.6-4.7,1.1-9.4,0.4-14.2c-0.1-0.4-0.2-0.7-0.7-0.7c-0.6,0-0.7,0.5-0.8,0.9
				C580.1,384.6,579.2,389.9,580.2,395.6z M582.2,366.8c0.7-3.1,1.3-6.3,1.2-9.4c0-2.4-0.3-4.8-0.4-7.2c0-0.8-0.5-1.3-1.2-1.4
				c-0.8-0.1-0.8,0.6-0.8,1.1C580.8,355.5,580.9,361.2,582.2,366.8z M557.6,385.4c2-3.1,1.4-6.5,1.4-9.8c0-0.5-0.2-0.9-0.7-0.9
				c-0.6,0-0.7,0.5-0.7,1C557.6,378.9,557.6,382.2,557.6,385.4z"/>
		</g>
	</g>
</g>
</svg>
