<?xml version="1.0" encoding="utf-8"?>
<!-- Generator: Adobe Illustrator 26.5.3, SVG Export Plug-In . SVG Version: 6.00 Build 0)  -->
<svg version="1.1" baseProfile="tiny" id="Layer_1" xmlns="http://www.w3.org/2000/svg" xmlns:xlink="http://www.w3.org/1999/xlink"
	 x="0px" y="0px" viewBox="0 0 612 792" overflow="visible" xml:space="preserve">
<g id="Layer_2_00000048459675009034669350000010274642232130258598_">
</g>
<g id="Layer_1_00000134937193386158516470000014886320237918149283_">
	<path stroke="#000000" stroke-width="10" stroke-miterlimit="10" d="M335,289"/>
	<path d="M382,399"/>
	<g id="FYUclS.tif">
		<g>
			<path fill="#FFFFFF" d="M489,195c0,2.5,0,5,0,7.5c-0.7,4.5-1.4,9-2.6,13.5c-5.3,20.2-13.3,39.4-20.8,58.9c-5,13-9.8,26-13.5,39.5
				c-4.2,15.7-8,31.5-9.2,47.8c-0.7,9.8-0.6,19.7,2.2,29.2c0.8,2.6,1.2,2.8,3.6,1.2c4-2.7,8.2-5.1,13-6.2c4.6-1.1,8.7-0.3,11.7,3.5
				c2.1,2.6,3,5.7,3.2,9c0.4,9.2-1.8,18.1-4.7,26.7c-5.6,16.6-12.8,32.5-21.7,47.7c-8.4,14.3-17.8,28-29.2,40.1
				c-13.9,14.7-30.5,25.5-49.3,32.9c-6.4,2.5-12.6,5.8-19.5,6.9c-11.4,1.8-22.8,4.3-34.4,4.7c-1.8,0.1-2.7,1-2.6,2.9
				c0.1,3.5,0.1,7,0,10.5c0,2.2,0.9,2.8,2.9,2.5c13.9-1.7,27.7-3.5,41.6-5.2c10.7-1.3,21.5-2.5,32.2-3.7c5.9-0.6,5.9-0.5,7.1,5.3
				c0.2,0.8,0.4,1.6,0.6,2.4c0.4,2.2-0.3,3.7-2.6,4.3c-3.1,0.9-6.1,1.6-9.3,0.5c-0.8-0.3-1.6-0.3-2.5-0.1
				c-12.7,2.8-25,6.9-37.6,10.2c-0.5,0.1-1.3,0.2-1.2,1c0.1,0.7,0.8,0.7,1.3,0.9c3.2,1.1,6.5,2.2,9.6,3.5
				c16.1,6.6,32.6,12.2,48.9,18.4c1.5,0.6,2.4,1.4,2.7,2.9c0.4,2.3,1,4.6,1.3,6.9c0.4,2.7-0.8,4.1-3.6,4.1c-3.4,0-6.5-1.4-9.7-2.2
				c-0.7-0.2-1.4-0.7-1.6-1.5c-0.4-2-1.9-2.3-3.5-2.7c-24.4-6-48.9-12-73.3-18.1c-7.7-1.9-15.3-1.9-23-0.1
				c-24.2,5.9-48.4,11.8-72.6,17.7c-2.2,0.5-4.8,0.6-5.4,3.6c-0.1,0.3-0.5,0.7-0.9,0.8c-3.5,1-6.9,2.4-10.7,2.3c-2.2,0-3-1.3-3-3.4
				c0-1.7,1.5-2.9,1.4-4.5c-0.1-4.3,2.6-5.8,6.1-7.1c17.9-6.8,36-13,53.8-20.3c0.7-0.3,1.9-0.3,1.8-1.4c-0.1-0.9-1.1-0.8-1.8-1.1
				c-4.9-2.2-10.1-3.3-15.2-4.6c-5.9-1.5-11.7-4.1-18-3.6c-0.2,0-0.6,0-0.7-0.1c-2.3-2.5-5-1.2-7.7-1.1c-2.9,0.2-6-0.3-8.3-2.2
				c-2.1-1.8-0.1-4,0.3-6c0-0.2,0.1-0.3,0.1-0.5c0.1-2.6,1.7-3.6,4-3.8c1.2-0.1,2.3,0,3.5,0.1c6.9,0.7,13.7,2,20.6,2
				c9.1,0.1,18,1.9,27,2.6c8.7,0.7,17.3,2.2,26,3.4c2,0.3,2.8-0.4,2.7-2.4c-0.1-3.2-0.2-6.5-0.2-9.7c-0.1-3.3-0.4-3.6-3.8-3.8
				c-5.9-0.4-11.8-0.8-17.6-2.1c-8.7-1.9-17.7-2.3-26.3-5.8c-14.2-5.8-28.4-11.7-40.7-21.1c-1.4-1.1-2.6-1.2-4.1-0.1
				c-1.9,1.4-3.9,2.8-6,4.1c-0.9,0.6-2.2,1.5-3,0.1c-0.7-1.2,0.5-2,1.3-2.5c1.6-1.1,3.2-2.1,4.9-3c2.2-1.4,2.3-1.9,0.3-3.6
				c-3.9-3.5-7.9-6.9-11.4-10.8c-7.4-8.2-14.1-16.9-20.2-26c-13-19.3-23.1-40.1-30.6-62.2c-2.9-8.6-4.8-17.5-4.2-26.7
				c0.6-8.8,6-13.2,14-11.6c4.8,1,9.1,3.2,13.1,6c2.6,1.8,3.2,1.7,4.2-1.3c0.3-0.8,0.5-1.6,0.7-2.4c2.5-9.5,2.2-19.2,1.3-28.8
				c-1.2-14-4.4-27.6-7.9-41.2c-5-19.2-12.3-37.7-19.4-56.2c-4.5-11.7-9.3-23.2-12.8-35.2c-2.4-8.3-4.9-16.6-6-25.2
				c0-2.2,0-4.3,0-6.5c0.7-3.2,1.1-6.4,2.3-9.4c2.5-6.4,7-10.7,13.9-11.9c3.2-0.5,6.5-0.4,9.7,0.3c9.6,2.1,19.2,4,28.8,6.3
				c11.8,2.8,23.5,5.4,35.4,7.4c15.9,2.7,31.9,4.8,48,6.3c15,1.4,30,2.7,45.1,2.7c7.7,0,15.5-0.8,23.2-1.2
				c12.7-0.6,25.2-1.9,37.8-3.4c19.9-2.3,39.5-5.9,59-10.3c12.3-2.8,24.4-5.9,36.8-8.1c10.2-1.8,18.3,2.7,22.2,12.3
				C488,189.3,488.4,192.2,489,195z"/>
		</g>
	</g>
</g>
</svg>
